<svg width="72" height="72" viewBox="0 0 72 72" fill="none" xmlns="http://www.w3.org/2000/svg">
<path d="M1.5 15.522C1.5 9.89129 4.26687 5.19309 9.27748 3.99383C14.6771 2.70146 23.154 1.5 36 1.5C48.846 1.5 57.3229 2.70146 62.7225 3.99383C67.7331 5.19309 70.5 9.89128 70.5 15.522V56.478C70.5 62.1087 67.7331 66.8069 62.7225 68.0062C57.3229 69.2985 48.846 70.5 36 70.5C23.154 70.5 14.6771 69.2985 9.27748 68.0062C4.26686 66.8069 1.5 62.1087 1.5 56.478V15.522Z" fill="#E02DFF" stroke="white" stroke-width="3"/>
<path d="M49.5143 31.1386H42.7175L42.7168 24.5517C42.7168 20.5455 39.7092 17.298 35.9999 17.2986C32.2899 17.298 29.2823 20.5455 29.2829 24.5523V31.1392H22.4861C18.3516 31.1392 15.0005 34.0533 15.0005 37.6493C15.0005 41.2441 18.3509 44.1588 22.4861 44.1582L29.2829 44.1588V50.7457C29.2823 54.7537 32.2905 58 35.9999 58C39.7099 57.9994 42.7175 54.7525 42.7181 50.7463V44.1588H49.5149C53.6482 44.1588 56.9999 41.2435 56.9999 37.6487C56.9999 34.0539 53.6482 31.1398 49.5143 31.1386Z" fill="#F1F6FF"/>
<path d="M49.5148 27.8401H42.7179L42.7173 21.2532C42.7173 17.247 39.7097 13.9994 36.0004 14C32.2904 13.9994 29.2828 17.247 29.2834 21.2538V27.8407H22.4866C18.352 27.8407 15.001 30.7548 15.001 34.3508C15.001 37.9456 18.3514 40.8603 22.4866 40.8597L29.2834 40.8603V47.4471C29.2828 51.4552 32.291 54.7015 36.0004 54.7015C39.7104 54.7009 42.718 51.4539 42.7186 47.4477V40.8603H49.5154C53.6487 40.8603 57.0004 37.945 57.0004 34.3502C57.0004 30.7554 53.6487 27.8413 49.5148 27.8401Z" fill="white"/>
<path d="M35.9999 15.7992C39.7099 15.7986 42.7169 19.0462 42.7169 23.0524L42.7175 29.6392H49.5143C53.2961 29.6398 56.4145 32.0814 56.9195 35.2497C56.9665 34.9553 56.9993 34.6566 56.9993 34.3507C56.9999 30.7554 53.6483 27.8412 49.5143 27.8406H42.7175L42.7169 21.2538C42.7169 17.2476 39.7093 14 35.9999 14.0006C32.2899 14 29.2823 17.2476 29.283 21.2544V23.0536C29.2817 19.0462 32.2899 15.7986 35.9999 15.7992Z" fill="white"/>
<path d="M22.4856 29.6399H29.2824V27.8407H22.4856C18.3511 27.8407 15 30.7548 15 34.3508C15 34.6566 15.0328 34.9553 15.0798 35.2504C15.5848 32.082 18.7032 29.6399 22.4856 29.6399Z" fill="white"/>
<path d="M30.4341 19.3052C30.4341 20.7164 31.6136 21.8601 33.0704 21.8601C34.5271 21.8601 35.7067 20.7164 35.7067 19.3052C35.7067 17.8941 34.5265 16.7498 33.0704 16.7498C31.6142 16.7498 30.4341 17.8941 30.4341 19.3052Z" fill="white"/>
</svg>
