<svg width="72" height="72" viewBox="0 0 72 72" fill="none" xmlns="http://www.w3.org/2000/svg">
<path d="M1.5 15.522C1.5 9.89129 4.26687 5.19309 9.27748 3.99383C14.6771 2.70146 23.154 1.5 36 1.5C48.846 1.5 57.3229 2.70146 62.7225 3.99383C67.7331 5.19309 70.5 9.89128 70.5 15.522V56.478C70.5 62.1087 67.7331 66.8069 62.7225 68.0062C57.3229 69.2985 48.846 70.5 36 70.5C23.154 70.5 14.6771 69.2985 9.27748 68.0062C4.26686 66.8069 1.5 62.1087 1.5 56.478V15.522Z" fill="#E02DFF" stroke="white" stroke-width="3"/>
<path d="M49.413 29.0042H39.9477V25.5963C39.9477 18.831 36.4722 16.1937 32.2246 19.739L18.1968 31.4403C13.9491 34.9836 13.9323 40.82 18.1593 44.4104L32.2627 56.385C36.4897 59.9747 39.9472 57.3763 39.9472 50.6117V47.158H49.4124C53.6024 47.158 57 43.0938 57 38.0807C57.0005 33.0684 53.6029 29.0042 49.413 29.0042Z" fill="#CCCCCC"/>
<path d="M49.413 24.8422H39.9477V21.4343C39.9477 14.669 36.4722 12.0317 32.2246 15.577L18.1968 27.2784C13.9491 30.8216 13.9323 36.658 18.1593 40.2484L32.2627 52.2231C36.4897 55.8127 39.9472 53.2143 39.9472 46.4497V42.996H49.4124C53.6024 42.996 57 38.9318 57 33.9188C57.0005 28.9064 53.6029 24.8422 49.413 24.8422Z" fill="white"/>
<path d="M39.9478 27.0966H49.4131C53.2834 27.0966 56.4708 30.567 56.9359 35.046C56.974 34.6763 57.0001 34.3017 57.0001 33.9188C57.0001 28.9064 53.6031 24.8422 49.4126 24.8422H39.9473V27.0966H39.9478Z" fill="white"/>
<path d="M18.1974 29.5327L32.2251 17.8314C36.4728 14.2868 39.9482 16.9234 39.9482 23.6887V21.4343C39.9482 14.669 36.4728 12.0317 32.2251 15.577L18.1974 27.2784C15.7272 29.3392 14.6985 32.1742 15.0922 34.8933C15.3792 32.9254 16.4084 31.0248 18.1974 29.5327Z" fill="white"/>
<path d="M17.4868 30.5295C17.4868 32.1617 18.5247 33.4845 19.8067 33.4845C21.0886 33.4845 22.1266 32.1624 22.1266 30.5295C22.1266 28.8967 21.0886 27.5739 19.8067 27.5739C18.5247 27.5739 17.4868 28.8973 17.4868 30.5295Z" fill="white"/>
</svg>
