<svg width="44" height="44" viewBox="0 0 44 44" fill="none" xmlns="http://www.w3.org/2000/svg">
<path d="M0.916667 9.48566C0.916667 6.04467 2.60753 3.17355 5.66957 2.44067C8.96933 1.65089 14.1497 0.916667 22 0.916667C29.8503 0.916667 35.0307 1.65089 38.3304 2.44067C41.3925 3.17355 43.0833 6.04468 43.0833 9.48567V34.5143C43.0833 37.9553 41.3925 40.8264 38.3304 41.5593C35.0307 42.3491 29.8503 43.0833 22 43.0833C14.1497 43.0833 8.96933 42.3491 5.66957 41.5593C2.60753 40.8264 0.916667 37.9553 0.916667 34.5143V9.48566Z" fill="#E02DFF" stroke="white" stroke-width="1.83333"/>
<path d="M25.0359 32.5887L36.7416 16.608C38.411 14.3292 36.7833 11.1197 33.9584 11.1197L10.5468 11.1197C7.72179 11.1197 6.09447 14.3292 7.76355 16.608L19.4695 32.5887C20.8481 34.4705 23.6576 34.4705 25.0359 32.5887Z" fill="#CCCCCC"/>
<path d="M24.9451 31.469L36.6508 15.4884C38.3202 13.2096 36.6925 10 33.8676 10L10.4559 10C7.63097 10 6.00365 13.2096 7.67273 15.4884L19.3787 31.469C20.7573 33.3508 23.5668 33.3508 24.9451 31.469Z" fill="white"/>
</svg>
