<svg width="33" height="32" viewBox="0 0 33 32" fill="none" xmlns="http://www.w3.org/2000/svg">
<path d="M16.4948 0.928467C8.17385 0.928467 1.42853 7.67386 1.42853 15.9948C1.42853 24.3158 8.17385 31.0612 16.4948 31.0612C24.8156 31.0612 31.5612 24.3158 31.5612 15.9948C31.5612 7.67388 24.8156 0.928467 16.4948 0.928467Z" fill="#FBBE12"/>
<path d="M16.4948 0.928467C8.17385 0.928467 1.42853 7.67386 1.42853 15.9948C1.42853 24.3158 8.17385 31.0612 16.4948 31.0612C24.8156 31.0612 31.5612 24.3158 31.5612 15.9948C31.5612 7.67388 24.8156 0.928467 16.4948 0.928467Z" fill="#F5A10F"/>
<path d="M30.7794 16.5518H29.5811C29.5222 17.9597 29.2412 19.3101 28.772 20.5689L29.8755 21.0343C30.1564 21.1529 30.292 21.4768 30.1734 21.7578L30.1684 21.7698C30.0497 22.0505 29.7233 22.1792 29.4425 22.0608L28.3386 21.5951C27.7714 22.7924 27.0281 23.89 26.142 24.8543L26.9887 25.701C27.2042 25.9166 27.2079 26.2675 26.9924 26.4832L26.9832 26.4924C26.7675 26.7078 26.4166 26.7042 26.201 26.4887L25.3543 25.642C24.2838 26.6257 23.049 27.4334 21.6959 28.0195L22.1246 29.1389C22.2336 29.4235 22.0941 29.7454 21.8096 29.8546L21.7974 29.8593C21.5126 29.9684 21.1934 29.8221 21.0843 29.5373L20.6557 28.4181C19.5162 28.7995 18.3068 29.0286 17.0518 29.0812V30.2794C17.0518 30.5846 16.8057 30.835 16.5005 30.8351H16.4949H16.4892C16.184 30.835 15.9379 30.5846 15.9379 30.2794V29.0812C14.53 29.0223 13.1796 28.7412 11.9208 28.272L11.4554 29.3754C11.3368 29.6564 11.0129 29.7919 10.732 29.6734L10.7199 29.6683C10.4392 29.5496 10.3105 29.2233 10.429 28.9425L10.8946 27.8386C9.69725 27.2715 8.59969 26.5282 7.63533 25.6421L6.78876 26.4886C6.57318 26.7042 6.22223 26.7078 6.00656 26.4923L5.99737 26.4832C5.78188 26.2675 5.78548 25.9165 6.00104 25.7009L6.84762 24.8544C5.86396 23.7838 5.05625 22.5491 4.47018 21.196L3.35078 21.6246C3.06622 21.7336 2.74437 21.5941 2.63511 21.3096L2.63041 21.2974C2.5213 21.0126 2.66762 20.6934 2.95243 20.5843L4.0716 20.1557C3.69013 19.0162 3.46103 17.8069 3.40854 16.5518H2.2103C1.90511 16.5518 1.65474 16.3057 1.6546 16.0005V15.9892C1.65474 15.684 1.90511 15.4379 2.2103 15.4379H3.40854C3.46744 14.03 3.74851 12.6796 4.21769 11.4208L3.11428 10.9554C2.83329 10.8368 2.69775 10.5129 2.81627 10.2319L2.82138 10.2199C2.94008 9.9392 3.26644 9.81052 3.5472 9.92894L4.65108 10.3946C5.21821 9.19726 5.96157 8.09968 6.84763 7.13534L6.00108 6.28877C5.7855 6.07318 5.78189 5.72223 5.99739 5.50656L6.00657 5.4974C6.22223 5.2819 6.57321 5.28551 6.78878 5.50108L7.63534 6.34764C8.7059 5.36397 9.94063 4.55623 11.2938 3.97019L10.8651 2.85082C10.7561 2.56626 10.8957 2.24439 11.1801 2.13513L11.1924 2.13044C11.4772 2.02135 11.7964 2.16768 11.9054 2.45246L12.334 3.57162C13.4735 3.19014 14.6829 2.96106 15.9379 2.90856V1.71033C15.9379 1.40512 16.184 1.15478 16.4892 1.15462H16.5005C16.8057 1.15478 17.0518 1.40512 17.0518 1.71033V2.90858C18.4597 2.9675 19.8101 3.24857 21.0689 3.71778L21.5344 2.61427C21.6529 2.3333 21.9768 2.19775 22.2578 2.31628L22.2698 2.32137C22.5505 2.44005 22.6792 2.76643 22.5608 3.04721L22.0951 4.15116C23.2924 4.7183 24.39 5.46166 25.3543 6.34772L26.201 5.50105C26.4166 5.28548 26.7675 5.28189 26.9832 5.49737L26.9924 5.50653C27.2079 5.72221 27.2042 6.07317 26.9887 6.28874L26.142 7.1354C26.8396 7.89461 27.4487 8.73642 27.953 9.64443L27.9819 9.45455C27.9839 9.44131 28.003 9.44131 28.005 9.45455L28.0652 9.85065C28.0933 9.90361 28.1212 9.95677 28.1486 10.0102L28.155 10.0114L28.6347 10.0843C28.6479 10.0863 28.6479 10.1054 28.6347 10.1074L28.2291 10.169C28.3312 10.3743 28.428 10.5826 28.5195 10.7938L29.6389 10.3651C29.9235 10.2561 30.2454 10.3957 30.3546 10.6801L30.3593 10.6924C30.4684 10.9771 30.3221 11.2964 30.0373 11.4054L28.9181 11.834C29.2996 12.9735 29.5287 14.1829 29.5811 15.4379H30.7794C31.0846 15.4379 31.3349 15.684 31.3351 15.9892V15.9949V16.0005C31.3349 16.3057 31.0846 16.5518 30.7794 16.5518Z" fill="#FBBE12"/>
<path d="M24.4311 15.8718C23.468 15.2887 22.1382 14.6652 18.6471 15.3248C21.0427 13.3103 21.569 11.8689 21.802 10.8155C22.4044 8.09343 18.2589 6.5273 16.985 9.82422C16.6834 8.42408 15.6942 7.73428 14.682 7.65069L14.6176 7.22656C14.6148 7.20833 14.5885 7.20833 14.5858 7.22656L14.5226 7.64252C13.2624 7.61732 12.0207 8.52226 12.0782 10.1569C12.1149 11.2008 12.2954 12.5277 14.2885 14.758C11.4099 13.5669 10.0708 13.8513 9.05826 14.1765C6.1838 15.0997 7.14894 19.3444 10.4091 18.9054C7.73941 21.2218 10.6184 24.5907 12.975 23.101C13.9677 22.4736 15.2752 21.3636 16.4326 17.777C16.7392 21.4512 17.7423 22.8151 18.5547 23.6471C20.5024 25.6418 24.0831 23.0309 22.0222 20.1595C25.0922 21.3412 27.0138 17.4353 24.4311 15.8718Z" fill="#F5A10F"/>
<path d="M21.0843 29.5373C21.1934 29.8221 21.5126 29.9684 21.7974 29.8593L21.8096 29.8546C22.0941 29.7454 22.2336 29.4235 22.1246 29.1389L21.6959 28.0194C21.3564 28.1665 21.0094 28.2996 20.6557 28.418L21.0843 29.5373Z" fill="#DB8D07"/>
<path d="M29.4425 22.0608C29.7233 22.1792 30.0497 22.0505 30.1684 21.7699L30.1735 21.7578C30.292 21.4768 30.1565 21.1529 29.8755 21.0344L28.772 20.5689C28.6418 20.9183 28.4971 21.2606 28.3386 21.5951L29.4425 22.0608Z" fill="#DB8D07"/>
<path d="M10.429 28.9425C10.3106 29.2233 10.4393 29.5497 10.7199 29.6684L10.732 29.6735C11.013 29.792 11.3369 29.6564 11.4554 29.3755L11.9208 28.2721C11.5714 28.1419 11.2291 27.9972 10.8946 27.8387L10.429 28.9425Z" fill="#DB8D07"/>
<path d="M3.40854 15.4379H2.2103C1.90511 15.4379 1.65474 15.684 1.6546 15.9892V16.0006C1.65474 16.3058 1.90511 16.5519 2.2103 16.5519H3.40854C3.4008 16.3672 3.39685 16.1815 3.39685 15.9949C3.39685 15.8083 3.4008 15.6226 3.40854 15.4379Z" fill="#DB8D07"/>
<path d="M7.63536 6.34764L6.78879 5.50107C6.57322 5.28548 6.22225 5.28189 6.00659 5.49739L5.9974 5.50656C5.78191 5.72223 5.78551 6.07319 6.0011 6.28876L6.84765 7.13533C7.09901 6.86179 7.36182 6.59898 7.63536 6.34764Z" fill="#DB8D07"/>
<path d="M31.3351 15.9892C31.3349 15.684 31.0846 15.4379 30.7794 15.4379H29.5811C29.5888 15.6226 29.5928 15.8083 29.5928 15.9949C29.5928 16.1815 29.5888 16.3672 29.5811 16.5519H30.7794C31.0846 16.5519 31.3349 16.3058 31.3351 16.0005V15.9949V15.9892Z" fill="#DB8D07"/>
<path d="M25.3543 25.642L26.201 26.4887C26.4166 26.7043 26.7675 26.7079 26.9832 26.4924L26.9924 26.4832C27.2079 26.2675 27.2042 25.9166 26.9887 25.701L26.142 24.8543C25.8907 25.1279 25.6278 25.3907 25.3543 25.642Z" fill="#DB8D07"/>
<path d="M2.95244 20.5843C2.66764 20.6934 2.52132 21.0126 2.63042 21.2974L2.63513 21.3096C2.74438 21.5941 3.06624 21.7336 3.3508 21.6247L4.4702 21.196C4.32315 20.8564 4.19004 20.5095 4.07161 20.1558L2.95244 20.5843Z" fill="#DB8D07"/>
<path d="M6.84766 24.8544L6.00108 25.701C5.78552 25.9166 5.7819 26.2675 5.99741 26.4832L6.0066 26.4924C6.22227 26.7078 6.57322 26.7042 6.7888 26.4887L7.63537 25.6421C7.36182 25.3908 7.09899 25.1279 6.84766 24.8544Z" fill="#DB8D07"/>
<path d="M15.9379 29.0811V30.2794C15.9379 30.5846 16.1841 30.8349 16.4893 30.8351H16.495H16.5006C16.8058 30.8349 17.0519 30.5846 17.0519 30.2794V29.0811C16.8672 29.0889 16.6814 29.0928 16.4948 29.0928C16.3082 29.0928 16.1226 29.0889 15.9379 29.0811Z" fill="#DB8D07"/>
<path d="M30.0373 11.4055C30.3221 11.2964 30.4685 10.9772 30.3594 10.6924L30.3547 10.6801C30.2454 10.3957 29.9236 10.2562 29.639 10.3651L28.5195 10.7938C28.6666 11.1334 28.7997 11.4803 28.9181 11.8341L30.0373 11.4055Z" fill="#DB8D07"/>
<path d="M17.0519 2.90858V1.71033C17.0519 1.40512 16.8058 1.15478 16.5006 1.15462H16.4893C16.1841 1.15478 15.9379 1.40512 15.9379 1.71033V2.90856C16.1226 2.90084 16.3082 2.89688 16.4948 2.89688C16.6814 2.89688 16.8672 2.90086 17.0519 2.90858Z" fill="#DB8D07"/>
<path d="M3.54727 9.92898C3.26649 9.81056 2.94013 9.93924 2.82145 10.2199L2.81633 10.232C2.69782 10.513 2.83336 10.8369 3.11435 10.9554L4.21776 11.4208C4.34798 11.0715 4.49268 10.7292 4.65115 10.3946L3.54727 9.92898Z" fill="#DB8D07"/>
<path d="M26.142 7.13541L26.9887 6.28875C27.2042 6.07318 27.2079 5.72222 26.9924 5.50655L26.9832 5.49738C26.7675 5.2819 26.4166 5.28549 26.201 5.50106L25.3543 6.34773C25.6278 6.59904 25.8907 6.86186 26.142 7.13541Z" fill="#DB8D07"/>
<path d="M11.9054 2.45244C11.7964 2.16765 11.4772 2.02133 11.1924 2.13042L11.1801 2.13511C10.8957 2.24436 10.7562 2.56623 10.8651 2.85079L11.2938 3.97016C11.6333 3.8231 11.9803 3.69 12.334 3.57159L11.9054 2.45244Z" fill="#DB8D07"/>
<path d="M22.5608 3.04724C22.6792 2.76645 22.5505 2.44009 22.2698 2.32141L22.2577 2.31631C21.9768 2.19779 21.6529 2.33335 21.5344 2.61431L21.0689 3.71781C21.4183 3.84803 21.7606 3.99274 22.0951 4.1512L22.5608 3.04724Z" fill="#DB8D07"/>
<path d="M12.0782 10.157C12.1149 11.2009 12.2954 12.5278 14.2885 14.7581C11.4099 13.5669 10.0708 13.8514 9.05826 14.1766C6.1838 15.0998 7.14894 19.3445 10.4091 18.9055C7.73941 21.2219 10.6184 24.5907 12.975 23.1011C13.9677 22.4737 15.2752 21.3637 16.4326 17.7771C16.7392 21.4513 17.7423 22.8152 18.5547 23.6472C20.5024 25.6419 24.0831 23.031 22.0222 20.1596C25.0922 21.3413 27.0137 17.4354 24.4311 15.8718C23.468 15.2887 22.1382 14.6653 18.6471 15.3249C21.0427 13.3104 21.569 11.869 21.802 10.8156C22.4043 8.09351 18.2589 6.52738 16.985 9.8243C16.6834 8.42416 15.6942 7.73437 14.682 7.65078L14.7179 7.8872C14.7262 7.942 14.7693 7.98503 14.8241 7.99335L15.4846 8.09371C15.5028 8.09648 15.5028 8.12274 15.4846 8.1255L14.8241 8.22584C14.7693 8.23417 14.7262 8.27719 14.7179 8.33199L14.7029 8.43108C15.6723 8.44417 16.6575 9.06517 16.9462 10.4056C18.099 7.42218 21.8503 8.83941 21.3053 11.3027C21.0944 12.2559 20.6181 13.5603 18.4503 15.3832C21.6094 14.7864 22.8128 15.3505 23.6844 15.8782C26.0215 17.2931 24.2826 20.8276 21.5045 19.7583C23.3695 22.3567 20.1292 24.7193 18.3667 22.9143C17.6315 22.1614 16.7238 20.9272 16.4463 17.6023C15.399 20.8479 14.2158 21.8523 13.3175 22.4201C11.1849 23.7681 8.57968 20.7196 10.9955 18.6234C8.04534 19.0206 7.17196 15.1796 9.77313 14.3441C10.6894 14.0498 11.9012 13.7924 14.5061 14.8704C12.7025 12.8521 12.5392 11.6513 12.5059 10.7066C12.4572 9.32128 13.4397 8.51508 14.5014 8.4371L14.4854 8.33198C14.4771 8.27717 14.4341 8.23415 14.3793 8.22583L13.7187 8.12548C13.7005 8.12271 13.7005 8.09645 13.7187 8.09369L14.3793 7.99334C14.4341 7.98501 14.4771 7.94199 14.4854 7.88719L14.5226 7.6426C13.2624 7.61739 12.0207 8.52233 12.0782 10.157Z" fill="#DB8D07"/>
<path d="M19.6767 26.9267L19.3355 26.8748C14.0804 28.2497 8.44222 25.6353 6.19559 20.5059C4.9906 17.755 4.92912 14.6993 6.02239 11.902C6.76966 9.98984 7.9954 8.35493 9.57494 7.1268C9.50323 6.9618 9.35522 6.83839 9.17476 6.80045C7.56795 8.07533 6.31977 9.75744 5.55331 11.7186C4.4111 14.6412 4.47537 17.8337 5.73429 20.708C6.54691 22.5633 7.78413 24.1037 9.28235 25.2653L9.30684 25.104C9.30822 25.095 9.32118 25.095 9.32254 25.104L9.3556 25.3217C9.43976 25.3859 9.52474 25.4489 9.6105 25.5107L9.75048 25.532C9.75947 25.5333 9.75947 25.5463 9.75048 25.5477L9.6776 25.5587C11.6628 26.9689 14.0571 27.7421 16.5114 27.7421C17.604 27.7421 18.7086 27.5888 19.7942 27.2703L19.7538 27.0037C19.7477 26.964 19.7165 26.9327 19.6767 26.9267Z" fill="#F09D0F"/>
<path d="M27.2555 11.282C24.6568 5.3485 17.715 2.63553 11.7818 5.23429C11.1486 5.51165 10.5475 5.83972 9.98291 6.21387C10.0662 6.36127 10.2138 6.46693 10.3884 6.49344L10.4608 6.50445C10.9429 6.19938 11.4515 5.92876 11.9838 5.69559C13.4477 5.05444 14.9746 4.75124 16.4789 4.75124C20.8108 4.75124 24.948 7.26868 26.7942 11.484C29.2815 17.1629 26.6849 23.8068 21.0059 26.2942C20.6502 26.45 20.2907 26.5858 19.9287 26.7021C19.9408 26.7314 19.9675 26.7529 19.9998 26.7578L20.4795 26.8307C20.4928 26.8327 20.4928 26.8518 20.4795 26.8538L19.9998 26.9267C19.96 26.9327 19.9287 26.964 19.9227 27.0038L19.8864 27.2429C20.3309 27.1085 20.7721 26.9464 21.2079 26.7555H21.208C27.1413 24.1567 29.8542 17.2153 27.2555 11.282Z" fill="#F09D0F"/>
<path d="M9.57494 7.12679C9.59404 7.17071 9.60771 7.21757 9.61515 7.26656L9.73984 8.08721C9.74437 8.11699 9.78729 8.11699 9.79181 8.08721L9.91649 7.26656C9.95352 7.02296 10.1447 6.83174 10.3883 6.79474L11.2089 6.67005C11.2387 6.66553 11.2387 6.6226 11.2089 6.61809L10.4607 6.50441L10.3883 6.49341C10.2138 6.46689 10.0661 6.36123 9.98285 6.21384C9.94988 6.15551 9.92697 6.09065 9.91648 6.02158L9.79181 5.20096C9.78729 5.17118 9.74437 5.17118 9.73984 5.20096L9.61515 6.02159C9.57814 6.2652 9.38696 6.4564 9.14334 6.49341L8.32269 6.61809C8.29291 6.62261 8.29291 6.66554 8.32269 6.67005L9.14332 6.79472C9.15389 6.79633 9.16437 6.79825 9.17475 6.80044C9.35523 6.83838 9.50324 6.96178 9.57494 7.12679Z" fill="white"/>
<path d="M6.47059 12.5473L7.38907 12.6869C7.46527 12.6985 7.5251 12.7583 7.53668 12.8345L7.67621 13.753C7.68006 13.7783 7.71657 13.7783 7.72044 13.753L7.85998 12.8345C7.87158 12.7583 7.93138 12.6985 8.0076 12.6869L8.92608 12.5473C8.9514 12.5435 8.9514 12.507 8.92608 12.5031L8.0076 12.3636C7.9314 12.352 7.87158 12.2922 7.85998 12.216L7.72044 11.2975C7.71657 11.2721 7.68007 11.2721 7.67621 11.2975L7.53668 12.216C7.5251 12.2922 7.46527 12.352 7.38907 12.3636L6.47059 12.5031C6.44527 12.507 6.44527 12.5435 6.47059 12.5473Z" fill="white"/>
<path d="M14.3793 7.99327L13.7187 8.09363C13.7005 8.0964 13.7005 8.12265 13.7187 8.12541L14.3793 8.22576C14.4341 8.23408 14.4771 8.27711 14.4854 8.33191L14.5014 8.43703L14.5858 8.99246C14.5886 9.01069 14.6148 9.01069 14.6176 8.99246L14.7029 8.431L14.7179 8.33191C14.7263 8.27711 14.7693 8.23408 14.8241 8.22576L15.4846 8.12541C15.5029 8.12264 15.5029 8.09639 15.4846 8.09363L14.8241 7.99327C14.7693 7.98494 14.7263 7.94192 14.7179 7.88712L14.682 7.65069L14.6176 7.22656C14.6148 7.20833 14.5886 7.20833 14.5858 7.22656L14.5226 7.64252L14.4854 7.8871C14.4771 7.94192 14.4341 7.98494 14.3793 7.99327Z" fill="white"/>
<path d="M19.9997 26.9267L20.4795 26.8538C20.4927 26.8518 20.4927 26.8327 20.4795 26.8307L19.9997 26.7578C19.9674 26.7529 19.9407 26.7314 19.9286 26.7021C19.9258 26.6954 19.9238 26.6882 19.9226 26.6808L19.8497 26.201C19.8477 26.1878 19.8287 26.1878 19.8266 26.201L19.7538 26.6808C19.7477 26.7206 19.7165 26.7518 19.6767 26.7578L19.1969 26.8307C19.1837 26.8327 19.1837 26.8518 19.1969 26.8538L19.3355 26.8749L19.6767 26.9267C19.7165 26.9328 19.7477 26.964 19.7538 27.0038L19.7943 27.2703L19.8266 27.4836C19.8287 27.4968 19.8477 27.4968 19.8497 27.4836L19.8863 27.2429L19.9226 27.0038C19.9287 26.964 19.9599 26.9328 19.9997 26.9267Z" fill="white"/>
<path d="M9.75045 25.532L9.61046 25.5107L9.42444 25.4825C9.39738 25.4784 9.37615 25.4572 9.37203 25.4301L9.35557 25.3217L9.32251 25.1041C9.32115 25.0951 9.30818 25.0951 9.30681 25.1041L9.28232 25.2654L9.25729 25.4301C9.25319 25.4572 9.23195 25.4784 9.2049 25.4825L8.87888 25.532C8.86988 25.5334 8.86988 25.5463 8.87888 25.5477L9.2049 25.5972C9.23195 25.6014 9.25319 25.6226 9.25729 25.6496L9.30681 25.9757C9.30818 25.9847 9.32115 25.9847 9.32251 25.9757L9.37203 25.6496C9.37615 25.6226 9.39738 25.6014 9.42444 25.5972L9.67757 25.5588L9.75045 25.5477C9.75944 25.5463 9.75944 25.5334 9.75045 25.532Z" fill="white"/>
<path d="M19.8309 17.1968L20.1569 17.2463C20.184 17.2504 20.2052 17.2717 20.2093 17.2987L20.2588 17.6247C20.2602 17.6337 20.2732 17.6337 20.2745 17.6247L20.3241 17.2987C20.3282 17.2717 20.3494 17.2504 20.3765 17.2463L20.7025 17.1968C20.7115 17.1954 20.7115 17.1825 20.7025 17.1811L20.3765 17.1316C20.3494 17.1275 20.3282 17.1062 20.3241 17.0792L20.2745 16.7532C20.2732 16.7442 20.2602 16.7442 20.2588 16.7532L20.2093 17.0792C20.2052 17.1062 20.184 17.1275 20.1569 17.1316L19.8309 17.1811C19.8219 17.1825 19.8219 17.1954 19.8309 17.1968Z" fill="white"/>
<path d="M27.8319 10.0114L27.3522 10.0843C27.339 10.0863 27.339 10.1054 27.3522 10.1074L27.8319 10.1803C27.8717 10.1863 27.903 10.2176 27.909 10.2574L27.9819 10.7371C27.9839 10.7504 28.003 10.7504 28.005 10.7371L28.0779 10.2574C28.084 10.2176 28.1152 10.1863 28.155 10.1803L28.2291 10.169L28.6347 10.1074C28.648 10.1054 28.648 10.0863 28.6347 10.0843L28.155 10.0114L28.1487 10.0102C28.1119 10.002 28.0836 9.97199 28.0779 9.93432L28.0652 9.85069L28.005 9.45459C28.003 9.44135 27.9839 9.44135 27.9819 9.45459L27.9531 9.64447L27.909 9.93432C27.903 9.97413 27.8717 10.0054 27.8319 10.0114Z" fill="white"/>
</svg>
