<svg width="390" height="401" viewBox="0 0 390 401" fill="none" xmlns="http://www.w3.org/2000/svg" xmlns:xlink="http://www.w3.org/1999/xlink">
<path d="M133.839 116.25C133.913 115.315 134.409 114.564 134.965 113.865C135.337 113.398 135.352 113.077 134.952 112.605C134.171 111.681 133.552 110.635 133.087 109.516C132.597 108.339 132.913 107.291 133.888 106.896C135.016 106.439 135.801 106.939 136.305 107.941C137.679 110.675 139.646 112.769 142.54 113.927C145.952 115.293 148.445 114.448 150.174 111.231C150.719 110.216 151.344 109.504 152.594 109.978C153.509 110.326 153.834 111.38 153.338 112.638C152.241 115.415 150.24 117.209 147.282 117.767C146.196 117.972 145.679 118.266 146.118 119.469C146.308 119.992 146.219 120.618 146.25 121.198C146.289 121.947 145.897 122.393 145.194 122.52C144.484 122.648 143.986 122.308 143.709 121.652C143.374 120.859 143.3 120.013 143.195 119.17C142.987 117.494 142.076 117.089 140.705 118.043C139.818 118.66 138.774 118.316 138.304 117.03C137.889 115.896 137.534 116.125 136.905 116.797C136.212 117.538 135.451 118.219 134.362 117.425C133.97 117.14 133.81 116.735 133.839 116.25Z" fill="#43293E"/>
<path d="M100.503 122.061C99.0746 121.194 99.5141 119.872 99.7946 118.691C100.022 117.731 99.8375 117.498 98.8487 117.439C95.601 117.243 93.012 115.853 91.3955 112.925C90.903 112.032 90.7627 111.104 91.6106 110.352C92.249 109.786 93.0051 109.781 93.6916 110.33C93.9312 110.522 94.1123 110.792 94.3021 111.04C96.7864 114.284 99.7762 114.906 103.352 112.896C105.323 111.788 106.794 110.211 107.716 108.131C108.555 106.239 109.37 106.036 110.947 107.299C111.615 109.124 110.604 110.537 109.641 111.838C108.929 112.799 108.57 113.499 109.574 114.427C109.845 114.678 109.984 115.121 110.077 115.502C110.232 116.13 109.947 116.648 109.45 117.015C108.971 117.368 108.439 117.35 107.95 117.017C107.62 116.793 107.311 116.532 107.015 116.263C106.409 115.714 105.89 115.31 105.574 116.532C105.391 117.241 104.867 117.678 104.073 117.575C103.328 117.478 103.036 117.822 102.928 118.516C102.818 119.218 102.642 119.914 102.444 120.597C102.167 121.553 101.582 122.147 100.503 122.061Z" fill="#452A3F"/>
<path d="M137.958 146.331C137.964 146.778 137.77 147.129 137.37 147.302C136.829 147.536 136.312 147.455 135.901 147.002C135.237 146.269 134.481 145.647 133.69 145.057C127.696 140.586 119.785 141.37 114.807 146.937C114.599 147.171 114.403 147.415 114.19 147.644C113.815 148.047 113.391 148.198 112.877 147.883C112.345 147.556 112.152 147.074 112.352 146.507C112.483 146.139 112.723 145.794 112.972 145.485C118.918 138.099 131.072 137.887 137.278 145.058C137.598 145.428 137.942 145.794 137.958 146.331Z" fill="#462A3D"/>
<defs>
</defs>
</svg>
