<svg width="76" height="76" viewBox="0 0 76 76" fill="none" xmlns="http://www.w3.org/2000/svg">
<rect x="1" y="1" width="74" height="74" rx="37" fill="#F1F6FF"/>
<rect x="1" y="1" width="74" height="74" rx="37" stroke="black" stroke-width="2"/>
<rect x="2" y="2" width="72" height="72" rx="36" fill="#CEE8FF"/>
<path d="M28.166 48.041C28.166 48.041 36.3548 42.236 46.0056 48.041V54.5523H28.3842L28.166 48.041Z" fill="#FFCB05"/>
<path d="M28.166 48.041C28.166 48.041 36.3548 42.236 46.0056 48.041V54.5523H28.3842L28.166 48.041Z" fill="#FFCB05"/>
<path d="M29.5227 44.2168C29.5227 44.2168 29.8151 48.0895 29.5227 51.3012C29.4968 51.5844 29.741 52.0279 29.8387 52.2832C30.1345 53.0568 30.5166 53.8023 30.9873 54.4902C32.3968 56.5499 34.4902 57.7357 37.04 57.8574C37.1018 57.8604 37.1638 57.8633 37.2257 57.8664C37.0882 57.8664 36.9508 57.8664 36.8133 57.8664C39.4394 57.87 41.6754 56.5332 43.0903 54.4335C43.5476 53.7551 43.9198 53.0223 44.2085 52.2623C44.3035 52.0121 44.5417 51.5785 44.5165 51.3014C44.2241 48.0897 44.5165 44.217 44.5165 44.217L29.5227 44.2168Z" fill="#FED09E"/>
<path opacity="0.4" d="M29.5227 44.2168C29.5227 44.2168 29.8151 48.0895 29.5227 51.3012C29.4968 51.5844 29.741 52.0279 29.8387 52.2832C30.1345 53.0568 30.5166 53.8023 30.9873 54.4902C32.3968 56.5499 34.4902 57.7357 37.04 57.8574C37.1018 57.8604 37.1638 57.8633 37.2257 57.8664C37.0882 57.8664 36.9508 57.8664 36.8133 57.8664C39.4394 57.87 41.6754 56.5332 43.0903 54.4335C43.5476 53.7551 43.9198 53.0223 44.2085 52.2623C44.3035 52.0121 44.5417 51.5785 44.5165 51.3014C44.2241 48.0897 44.5165 44.217 44.5165 44.217L29.5227 44.2168Z" fill="#FED09E"/>
<path opacity="0.6" d="M29.5216 44.2168C29.5216 44.2168 29.5583 44.7024 29.5927 45.4717C30.196 46.2349 30.8893 46.9235 31.6175 47.5796C33.2055 49.0103 35.0509 50.5119 37.2144 50.5284C39.3778 50.5119 41.2233 49.0103 42.8112 47.5796C43.3787 47.0684 43.9255 46.538 44.4245 45.9676C44.4628 44.9165 44.5156 44.2166 44.5156 44.2166L29.5216 44.2168Z" fill="#FED09E"/>
<path d="M37.0975 74.0001C58.3421 74.0001 67.6709 61.2479 67.6709 61.2479C67.8261 58.1176 46.0056 52.8805 46.0056 52.8805V48.041C43.8793 50.7707 37.675 51.9553 37.675 51.9553L37.0904 56.4877H37.0813L36.4967 51.9553C36.4967 51.9553 30.2926 50.7707 28.1661 48.041V52.8805C28.1661 52.8805 6.3454 58.1176 6.50083 61.2479C6.50083 61.2479 15.8296 74.0001 37.0742 74.0001" fill="#86ADDA"/>
<path opacity="0.4" d="M46.0056 52.8805V48.041C43.8792 50.7707 37.675 51.9553 37.675 51.9553L37.2218 55.4685V73.9996C58.3782 73.9498 67.6708 61.2479 67.6708 61.2479C67.8262 58.1176 46.0056 52.8805 46.0056 52.8805Z" fill="#86ADDA"/>
<path d="M19.4018 63.7305C21.0528 59.038 20.0524 56.5283 19.1166 55.3285C13.138 57.1098 6.41434 59.5054 6.50083 61.2479C6.50083 61.2479 12.2441 69.0978 24.9791 72.4796C24.4492 61.6349 19.4018 63.7305 19.4018 63.7305Z" fill="#262262"/>
<path d="M21.1949 61.5796C21.1949 61.5796 26.5502 61.4617 26.6954 72.8981C27.4761 73.0715 28.2812 73.2277 29.1103 73.3644C29.1215 69.5298 28.4893 60.4455 22.2053 60.9838C22.2053 60.9838 24.6968 58.4521 21.5684 54.6185C21.3592 54.6774 21.1475 54.7375 20.9337 54.7986C21.7475 55.7478 23.3515 58.263 21.1949 61.5796Z" fill="#262262"/>
<path d="M54.7702 63.7305C53.1192 59.038 54.1196 56.5283 55.0554 55.3285C61.0338 57.11 67.7575 59.5054 67.6712 61.2479C67.6712 61.2479 61.9279 69.0978 49.1929 72.4796C49.7226 61.6349 54.7702 63.7305 54.7702 63.7305Z" fill="#262262"/>
<path d="M52.9775 61.5796C52.9775 61.5796 47.6222 61.4617 47.4771 72.8981C46.6964 73.0715 45.8914 73.2278 45.0622 73.3645C45.0508 69.5298 45.6832 60.4455 51.9671 60.9838C51.9671 60.9838 49.4757 58.4521 52.6041 54.6185C52.8132 54.6774 53.025 54.7375 53.2387 54.7987C52.4251 55.7479 50.821 58.2631 52.9775 61.5796Z" fill="#262262"/>
<path d="M37.6753 51.9553L37.0906 56.4877H37.0816L36.4969 51.9553C36.4969 51.9553 30.2929 50.7707 28.1665 48.041V50.1044C29.145 50.9879 31.4872 52.7374 35.2386 53.3642C35.2386 53.3642 35.7666 58.3084 36.8223 59.1609H37.4469C38.5026 58.3084 39.0306 53.3642 39.0306 53.3642C42.663 52.7573 44.9746 51.0974 46.0061 50.1906V48.041C43.8794 50.7707 37.6753 51.9553 37.6753 51.9553Z" fill="#FFCB05"/>
<path d="M21.7132 32.3866C21.8114 33.2665 22.1121 34.1175 22.5371 34.8981C22.9295 35.6186 23.4327 36.3026 24.0381 36.8701C24.4801 37.2845 25.1211 37.7835 25.7832 37.6361C26.148 37.5551 26.4044 37.2695 26.5863 36.9696C26.8133 36.5951 26.9554 36.1783 27.0235 35.7499C27.1592 34.8939 27.0288 34.0179 26.8562 33.1761C26.6887 32.3602 26.4411 31.5114 25.8747 30.8649C25.8706 30.8603 25.8655 30.8574 25.8605 30.8539C25.7627 30.6872 25.6486 30.5291 25.5163 30.3836C25.0345 29.8541 24.3489 29.5771 23.6225 29.591C22.988 29.603 22.3985 29.8762 22.0545 30.4032C21.6716 30.9899 21.6382 31.7154 21.7132 32.3866Z" fill="#FED09E"/>
<path opacity="0.35" d="M26.8568 33.1762C26.6894 32.3602 26.4418 31.5114 25.8755 30.865C25.8714 30.8603 25.8663 30.8574 25.8613 30.854C25.7635 30.6872 25.6494 30.5291 25.5172 30.3837C25.2731 30.1154 24.9768 29.9125 24.6495 29.7787C24.6234 30.44 24.6184 31.1019 24.6381 31.7633C24.6817 33.2366 24.8449 34.7054 25.1244 36.1541C25.2217 36.6583 25.3337 37.1595 25.4574 37.6581C25.5654 37.6659 25.6744 37.6607 25.7842 37.6363C26.149 37.5553 26.4054 37.2697 26.5873 36.9698C26.8143 36.5953 26.9564 36.1785 27.0245 35.7501C27.1601 34.894 27.0296 34.0179 26.8568 33.1762Z" fill="#FED09E"/>
<path d="M22.2204 31.5509C22.7152 30.8593 23.7324 31.5422 24.1749 31.9469C24.9012 32.6114 25.3244 33.5476 25.5105 34.4849C25.6218 35.0459 25.6505 35.6204 25.6149 36.19C25.6122 36.2336 25.5427 36.2099 25.5427 36.1751C25.5426 35.8505 25.5277 35.5258 25.4933 35.2035C25.3839 35.2671 25.2065 35.2563 25.1013 35.2315C24.9148 35.1877 24.7417 35.0873 24.5908 34.975C24.3014 34.7597 24.0432 34.4872 23.8334 34.198C23.8149 34.1728 23.8568 34.1693 23.8708 34.1875C24.0716 34.4477 24.3188 34.685 24.5889 34.8771C24.7284 34.9764 24.8792 35.0729 25.047 35.1196C25.1169 35.139 25.1904 35.1501 25.2631 35.1421C25.3439 35.1331 25.3985 35.0883 25.4726 35.0658C25.474 35.0653 25.4757 35.0657 25.4772 35.0653C25.4073 34.5078 25.2757 33.9593 25.0516 33.4363C24.7294 32.684 24.193 31.9534 23.4346 31.566C23.0681 31.3787 22.6153 31.275 22.2977 31.6036C22.267 31.6354 22.1935 31.5885 22.2204 31.5509Z" fill="#726658"/>
<path d="M53.1634 32.3866C53.0652 33.2665 52.7644 34.1175 52.3394 34.8981C51.9471 35.6186 51.4437 36.3026 50.8383 36.8701C50.3963 37.2845 49.7553 37.7835 49.0932 37.6361C48.7284 37.5551 48.472 37.2695 48.2901 36.9696C48.0631 36.5951 47.921 36.1783 47.8529 35.7499C47.7172 34.8939 47.8476 34.0179 48.0202 33.1761C48.1877 32.3602 48.4353 31.5114 49.0015 30.8649C49.0056 30.8603 49.0108 30.8574 49.0157 30.8539C49.1135 30.6872 49.2275 30.5291 49.3599 30.3836C49.8418 29.8541 50.5275 29.5771 51.2537 29.591C51.8882 29.603 52.4777 29.8762 52.8217 30.4032C53.2048 30.9899 53.2383 31.7154 53.1634 32.3866Z" fill="#FED09E"/>
<path opacity="0.35" d="M48.0203 33.1762C48.1878 32.3602 48.4354 31.5114 49.0017 30.865C49.0057 30.8603 49.0109 30.8574 49.0158 30.854C49.1137 30.6872 49.2276 30.5291 49.36 30.3837C49.6041 30.1154 49.9004 29.9125 50.2277 29.7787C50.2538 30.44 50.2587 31.1019 50.2391 31.7633C50.1955 33.2366 50.0322 34.7054 49.7528 36.1541C49.6555 36.6583 49.5434 37.1595 49.4197 37.6581C49.3118 37.6659 49.2026 37.6607 49.0929 37.6363C48.7282 37.5553 48.4717 37.2697 48.2899 36.9698C48.0629 36.5953 47.9207 36.1785 47.8527 35.7501C47.7173 34.894 47.8477 34.0179 48.0203 33.1762Z" fill="#FED09E"/>
<path d="M52.657 31.5509C52.1622 30.8593 51.1449 31.5422 50.7026 31.9469C49.9763 32.6114 49.5531 33.5476 49.367 34.4849C49.2557 35.0459 49.227 35.6204 49.2626 36.19C49.2653 36.2336 49.3346 36.2099 49.3347 36.1751C49.3349 35.8505 49.3498 35.5258 49.3842 35.2035C49.4935 35.2671 49.6709 35.2563 49.7762 35.2315C49.9626 35.1877 50.1358 35.0873 50.2866 34.975C50.576 34.7597 50.8343 34.4872 51.0441 34.198C51.0625 34.1728 51.0207 34.1693 51.0067 34.1875C50.8059 34.4477 50.5587 34.685 50.2886 34.8771C50.1491 34.9764 49.9983 35.0729 49.8304 35.1196C49.7606 35.139 49.6871 35.1501 49.6144 35.1421C49.5336 35.1331 49.479 35.0883 49.4049 35.0658C49.4035 35.0653 49.4017 35.0657 49.4003 35.0653C49.4701 34.5078 49.6018 33.9593 49.8258 33.4363C50.148 32.684 50.6847 31.9534 51.4429 31.566C51.8094 31.3787 52.2624 31.275 52.5798 31.6036C52.6103 31.6354 52.684 31.5885 52.657 31.5509Z" fill="#726658"/>
<path d="M49.2683 25.8462C49.325 28.1011 49.0668 30.4475 48.9094 32.6238C48.7042 35.4603 48.5135 38.4739 47.5634 41.1861C47.5281 41.2869 47.4914 41.3872 47.4526 41.4868C46.6629 43.511 45.141 45.0082 43.4564 46.3692C41.6757 47.8077 39.6048 49.3188 37.1748 49.3188H37.2545C34.8247 49.3188 32.7538 47.8079 30.9729 46.3692C29.2883 45.0084 27.7665 43.511 26.9767 41.4868C25.2977 37.1834 25.2434 25.8483 25.2434 25.8483C25.2434 25.8483 23.6711 15.2342 37.0729 15.2342C42.761 15.2342 48.1899 17.6471 49.0779 23.5436C49.191 24.2929 49.2486 25.0641 49.2683 25.8462Z" fill="#FED09E"/>
<path d="M25.5095 32.4579C25.5095 32.4579 25.0762 20.9554 28.9758 19.9059C28.9758 19.9059 31.1679 23.9055 39.1837 23.9055C47.1996 23.9055 45.8307 20.1157 45.8307 20.1157C45.8307 20.1157 48.907 22.8864 48.907 33.3813C48.907 33.3813 55.1022 14.9222 48.6562 13.7902C48.6562 13.7902 47.8505 8.6769 40.8405 8.91111C40.8405 8.91111 43.3383 9.06719 44.0635 10.6286C44.0635 10.6286 40.3974 7.38873 33.0247 9.41851C28.0069 10.7999 23.0776 15.3246 23.2573 20.7179C23.3013 22.038 23.7353 23.2601 24.0361 24.5321C24.3251 25.7545 24.5658 26.9953 24.7982 28.23C25.056 29.5977 25.4573 31.0632 25.5095 32.4579Z" fill="#EBA040"/>
<path opacity="0.4" d="M23.2573 20.7182C23.3013 22.0383 23.7353 23.2604 24.0361 24.5324C24.3251 25.7548 24.5658 26.9956 24.7982 28.2304C25.0557 29.5977 25.4569 31.0633 25.5094 32.4581C25.5094 32.4581 25.076 20.9555 28.9756 19.9061C28.9756 19.9061 31.1677 23.9057 39.1836 23.9057C47.1994 23.9057 45.8305 20.1159 45.8305 20.1159C45.8305 20.1159 48.9068 22.8866 48.9068 33.3815C48.9068 33.3815 50.5545 28.472 51.2663 23.5614C50.3114 25.8721 48.815 26.1693 48.582 22.8802C48.2383 18.0293 44.2624 16.7452 44.2624 16.7452C44.2624 16.7452 48.9747 19.456 40.1883 21.3584C31.4018 23.2607 28.5547 16.5074 28.5547 16.5074C28.5547 16.5074 27.573 21.3584 24.8731 20.8827C23.042 20.5601 24.3496 16.8688 25.3807 14.5266C24.015 16.3219 23.1815 18.4427 23.2573 20.7182Z" fill="#EBA040"/>
<path d="M28.4244 30.0148C28.4244 30.0148 31.3487 27.1816 33.997 30.6027C33.997 30.6027 30.7693 33.1152 28.4244 30.0148Z" fill="white"/>
<path d="M31.2326 31.4283C31.9723 31.4283 32.572 30.8473 32.572 30.1305C32.572 29.4138 31.9723 28.8328 31.2326 28.8328C30.4928 28.8328 29.8931 29.4138 29.8931 30.1305C29.8931 30.8473 30.4928 31.4283 31.2326 31.4283Z" fill="#2F6D8F"/>
<path d="M31.2325 30.8747C31.6567 30.8747 32.0006 30.5415 32.0006 30.1305C32.0006 29.7195 31.6567 29.3863 31.2325 29.3863C30.8082 29.3863 30.4644 29.7195 30.4644 30.1305C30.4644 30.5415 30.8082 30.8747 31.2325 30.8747Z" fill="#231F20"/>
<path d="M31.442 29.8659C31.442 30.1245 31.6584 30.334 31.9251 30.334C32.192 30.334 32.4084 30.1243 32.4084 29.8659C32.4084 29.6073 32.192 29.3976 31.9251 29.3976C31.6584 29.3976 31.442 29.6073 31.442 29.8659Z" fill="white"/>
<path d="M28.3959 29.9871C29.4992 28.6101 31.5272 28.1771 32.976 29.3323C33.4203 29.6788 33.7736 30.108 34.0293 30.5793C34.0398 30.5987 34.0321 30.6227 34.0121 30.6329C33.9962 30.6411 33.977 30.6378 33.9646 30.6263C33.5736 30.2608 33.1735 29.9218 32.7355 29.6625C31.311 28.7736 29.796 29.2029 28.453 30.0425C28.4183 30.0691 28.3674 30.0218 28.3959 29.9871Z" fill="#231F20"/>
<path d="M27.2361 27.9245C27.2361 27.9245 28.4955 25.6255 34.4461 28.1898L34.4911 28.0048C34.652 27.3431 34.2926 26.7326 33.6287 26.5122C27.6781 24.5365 27.2361 27.9245 27.2361 27.9245Z" fill="#EBA040"/>
<path d="M45.5436 30.0148C45.5436 30.0148 42.6194 27.1816 39.9711 30.6027C39.9711 30.6027 43.1987 33.1152 45.5436 30.0148Z" fill="white"/>
<path d="M42.7357 31.4283C43.4755 31.4283 44.0752 30.8473 44.0752 30.1305C44.0752 29.4138 43.4755 28.8328 42.7357 28.8328C41.9959 28.8328 41.3962 29.4138 41.3962 30.1305C41.3962 30.8473 41.9959 31.4283 42.7357 31.4283Z" fill="#2F6D8F"/>
<path d="M42.7355 30.8747C43.1597 30.8747 43.5036 30.5415 43.5036 30.1305C43.5036 29.7195 43.1597 29.3863 42.7355 29.3863C42.3113 29.3863 41.9674 29.7195 41.9674 30.1305C41.9674 30.5415 42.3113 30.8747 42.7355 30.8747Z" fill="#231F20"/>
<path d="M42.5261 29.8659C42.5261 30.1245 42.3097 30.334 42.043 30.334C41.7761 30.334 41.5597 30.1243 41.5597 29.8659C41.5597 29.6073 41.7761 29.3976 42.043 29.3976C42.3097 29.3976 42.5261 29.6073 42.5261 29.8659Z" fill="white"/>
<path d="M45.5725 29.9871C44.4693 28.6101 42.4414 28.1771 40.9924 29.3323C40.5481 29.6788 40.1949 30.108 39.9391 30.5793C39.9287 30.5987 39.9363 30.6227 39.9563 30.6329C39.9723 30.6411 39.9914 30.6378 40.0038 30.6263C40.3948 30.2608 40.795 29.9218 41.2329 29.6625C42.6575 28.7736 44.1724 29.2029 45.5154 30.0425C45.5502 30.0691 45.601 30.0218 45.5725 29.9871Z" fill="#231F20"/>
<path d="M46.7323 27.9245C46.7323 27.9245 45.4729 25.6255 39.5223 28.1898L39.4773 28.0048C39.3163 27.3431 39.6757 26.7326 40.3396 26.5122C46.2902 24.5365 46.7323 27.9245 46.7323 27.9245Z" fill="#EBA040"/>
<path d="M41.532 41.2498C41.532 41.2498 40.0086 43.1647 37.1793 43.1647H37.1811C34.3518 43.1647 32.8284 41.2498 32.8284 41.2498H41.532Z" fill="#C1736B"/>
<path opacity="0.6" d="M41.532 41.2498C41.532 41.2498 40.0086 43.1647 37.1793 43.1647H37.1811C34.3518 43.1647 32.8284 41.2498 32.8284 41.2498H41.532Z" fill="#C1736B"/>
<path d="M32.4468 41.1376C32.4468 41.1376 36.7481 42.5815 42.0261 41.1634C42.0261 41.1634 41.1809 41.1505 40.3545 40.854C39.5281 40.5574 38.2696 40.2094 37.199 40.5703C37.199 40.5703 35.9968 40.1577 34.4567 40.7508C32.9164 41.3438 32.4468 41.1376 32.4468 41.1376Z" fill="#C1736B"/>
<path opacity="0.3" d="M38.9547 37.0429L38.1501 37.536C37.5243 38.1423 36.5099 38.1423 35.8841 37.536L35.1107 37.0429C34.8306 36.7716 34.7819 36.3487 34.9932 36.0241L37.0327 32.8909L39.0722 36.0241C39.2837 36.3485 39.2348 36.7716 38.9547 37.0429Z" fill="#FED09E"/>
<path opacity="0.5" d="M39.0721 36.0239L38.6927 35.441C38.3581 35.992 37.7401 36.362 37.0326 36.362C36.3251 36.362 35.7071 35.992 35.3725 35.441L34.993 36.0239C34.7818 36.3485 34.8305 36.7714 35.1105 37.0427L35.884 37.5358C36.5098 38.1422 37.5242 38.1422 38.15 37.5358L38.9546 37.0427C39.2345 36.7716 39.2834 36.3485 39.0721 36.0239Z" fill="#FED09E"/>
<path d="M35.5165 36.7653C35.8972 36.5402 36.3667 36.7054 36.495 37.123C36.5315 37.242 36.5462 37.3641 36.5411 37.4867C36.5404 37.5085 36.5216 37.5257 36.4991 37.525C36.4826 37.5245 36.4686 37.5145 36.4627 37.5006C36.4388 37.4451 36.4204 37.3897 36.4025 37.3349C36.3482 37.1965 36.2683 37.0298 36.1558 36.9362C35.9924 36.8 35.7577 36.7966 35.5497 36.8368C35.5045 36.8503 35.4758 36.7885 35.5165 36.7653Z" fill="#726658"/>
<path d="M38.5487 36.7653C38.1681 36.5402 37.6986 36.7054 37.5703 37.123C37.5338 37.242 37.519 37.3641 37.5242 37.4867C37.5249 37.5085 37.5437 37.5257 37.5662 37.525C37.5827 37.5245 37.5967 37.5145 37.6025 37.5006C37.6264 37.4451 37.6449 37.3897 37.6628 37.3349C37.717 37.1965 37.7969 37.0298 37.9095 36.9362C38.0729 36.8 38.3075 36.7966 38.5158 36.8368C38.5606 36.8503 38.5893 36.7885 38.5487 36.7653Z" fill="#726658"/>
<path d="M35.1402 35.8182C35.0893 35.9178 35.0242 36.0162 34.9767 36.1153C34.8355 36.4203 34.9048 36.7728 35.1185 37.0355C35.1267 37.0446 35.1129 37.0583 35.1031 37.0504C34.7552 36.7891 34.7433 36.2602 35.018 35.9441C35.0524 35.8983 35.0859 35.8519 35.1217 35.8069C35.1295 35.7971 35.1464 35.8071 35.1402 35.8182Z" fill="#726658"/>
<path d="M38.9202 35.8069C38.9906 35.9 39.0622 35.9865 39.1207 36.089C39.2974 36.3979 39.2313 36.83 38.9388 37.0503C38.9291 37.0578 38.9154 37.0449 38.9234 37.0353C39.1372 36.7726 39.2066 36.4201 39.0652 36.1151C39.0175 36.0159 38.9527 35.9177 38.9018 35.8181C38.8958 35.8073 38.9126 35.7966 38.9202 35.8069Z" fill="#726658"/>
<path opacity="0.5" d="M35.3257 43.253C35.3257 43.253 36.519 44.0405 38.9402 43.253C38.9402 43.253 37.0379 45.6825 35.3257 43.253Z" fill="#FED09E"/>
</svg>
