<svg width="76" height="76" viewBox="0 0 76 76" fill="none" xmlns="http://www.w3.org/2000/svg">
<rect x="1" y="1" width="74" height="74" rx="37" fill="#F1F6FF"/>
<rect x="1" y="1" width="74" height="74" rx="37" stroke="black" stroke-width="2"/>
<g clip-path="url(#clip0_33_10455)">
<rect x="2" y="2" width="72" height="72" rx="36" fill="#CEE8FF"/>
<path d="M35.783 59.1173C35.783 59.1173 23.222 59.4954 20.777 59.8315C18.332 60.1676 15.0718 59.9996 13.25 65.378C13.25 65.378 27.537 78.9498 38.2762 78.9498H38.2867C49.0259 78.9498 63.3129 65.378 63.3129 65.378C61.491 59.9998 58.2309 60.1678 55.7859 59.8315C53.3408 59.4954 40.7798 59.1173 40.7798 59.1173C40.7798 59.1173 35.7318 59.0723 35.783 59.1173Z" fill="#71ABC5"/>
<path d="M23.9565 59.5889C24.3306 67.406 29.2508 74.4668 31.8081 77.6344C33.5326 78.2701 35.2546 78.7162 36.9131 78.8801C35.2503 77.203 27.5866 68.9959 26.7855 59.4496C25.7898 59.4938 24.824 59.5407 23.9565 59.5889Z" fill="#8B5E3C"/>
<path d="M49.7783 59.4494C48.9772 68.996 41.3135 77.2029 39.6506 78.88C41.3089 78.7163 43.0309 78.2702 44.7557 77.6343C47.3128 74.4667 52.2332 67.4059 52.6072 59.5888C51.7396 59.5407 50.7737 59.4939 49.7783 59.4494Z" fill="#8B5E3C"/>
<path opacity="0.3" d="M38.2867 75.5493H38.2762C28.894 75.5493 16.8043 66.1703 13.8986 63.7999C13.667 64.2645 13.4498 64.7878 13.25 65.3779C13.25 65.3779 27.537 78.9498 38.2762 78.9498H38.2867C49.0259 78.9498 63.3129 65.3779 63.3129 65.3779C63.113 64.7878 62.8958 64.2645 62.6642 63.7999C59.7588 66.1703 47.669 75.5493 38.2867 75.5493Z" fill="#71ABC5"/>
<path opacity="0.7" d="M38.2644 70.2273H38.2988C47.2018 70.2273 51.0792 64.9341 50.9811 59.5052C46.5081 59.2896 40.7797 59.1172 40.7797 59.1172C40.7797 59.1172 35.732 59.0723 35.7831 59.1172C35.7831 59.1172 30.0547 59.2896 25.5819 59.5052C25.4838 64.9341 29.3615 70.2273 38.2644 70.2273Z" fill="#71ABC5"/>
<path d="M39.7215 71.7077L39.6662 71.752C39.5893 71.8137 39.4699 71.8089 39.3995 71.7415L36.829 69.2758C36.7588 69.2084 36.7641 69.1036 36.8411 69.0421L36.8963 68.9978C36.9732 68.9361 37.0928 68.9409 37.163 69.0083L39.7335 71.4738C39.8039 71.5414 39.7986 71.646 39.7215 71.7077Z" fill="#C6E9F4"/>
<path d="M36.8411 71.7077L36.8963 71.752C36.9732 71.8137 37.0928 71.8089 37.163 71.7415L39.7335 69.2758C39.8037 69.2084 39.7984 69.1036 39.7215 69.0421L39.6662 68.9978C39.5893 68.9361 39.4699 68.9409 39.3995 69.0083L36.829 71.4738C36.7588 71.5414 36.7641 71.646 36.8411 71.7077Z" fill="#C6E9F4"/>
<path d="M39.7213 74.1385L39.6661 74.1827C39.5892 74.2444 39.4698 74.2396 39.3994 74.1722L36.8289 71.7065C36.7587 71.6391 36.764 71.5343 36.8409 71.4728L36.8962 71.4285C36.9731 71.367 37.0927 71.3716 37.1629 71.4391L39.7334 73.9047C39.8038 73.9721 39.7985 74.0767 39.7213 74.1385Z" fill="#C6E9F4"/>
<path d="M36.8409 74.1385L36.8962 74.1827C36.9731 74.2444 37.0927 74.2396 37.1629 74.1722L39.7334 71.7065C39.8036 71.6391 39.7983 71.5343 39.7213 71.4728L39.6661 71.4285C39.5892 71.367 39.4698 71.3716 39.3994 71.4391L36.8289 73.9047C36.7587 73.9721 36.764 74.0767 36.8409 74.1385Z" fill="#C6E9F4"/>
<path d="M39.7213 76.569L39.6661 76.6133C39.5892 76.675 39.4698 76.6702 39.3994 76.6027L36.8289 74.1371C36.7587 74.0697 36.764 73.9649 36.8409 73.9033L36.8962 73.8591C36.9731 73.7973 37.0927 73.8022 37.1629 73.8696L39.7334 76.3353C39.8038 76.4027 39.7985 76.5075 39.7213 76.569Z" fill="#C6E9F4"/>
<path d="M36.8409 76.569L36.8962 76.6133C36.9731 76.675 37.0927 76.6702 37.1629 76.6027L39.7334 74.1371C39.8036 74.0697 39.7983 73.9649 39.7213 73.9033L39.6661 73.8591C39.5892 73.7973 39.4698 73.8022 39.3994 73.8696L36.8289 76.3353C36.7587 76.4027 36.764 76.5075 36.8409 76.569Z" fill="#C6E9F4"/>
<path d="M39.5984 52.0202C39.5984 52.0202 47.338 49.2271 49.4844 55.2124C51.6307 61.1976 48.5089 68.6648 38.2976 68.6648H38.2654C28.0541 68.6648 24.9322 61.1975 27.0786 55.2124C29.2249 49.2273 36.9646 52.0202 36.9646 52.0202H39.5984Z" fill="#71ABC5"/>
<path d="M39.5984 52.0202C39.5984 52.0202 47.338 49.2271 49.4844 55.2124C51.6307 61.1976 48.5089 68.6648 38.2976 68.6648H38.2654C28.0541 68.6648 24.9322 61.1975 27.0786 55.2124C29.2249 49.2273 36.9646 52.0202 36.9646 52.0202H39.5984Z" fill="#71ABC5"/>
<path d="M32.2861 47.5129C32.2861 47.5129 34.1314 53.1249 31.9061 59.7061C31.9061 59.7061 34.4853 66.2854 38.2771 66.2854H38.2856C42.0776 66.2854 44.6565 59.7061 44.6565 59.7061C42.4313 53.1249 44.2766 47.5129 44.2766 47.5129H32.2861Z" fill="#F6B897"/>
<path opacity="0.5" d="M32.2859 47.5129C32.2859 47.5129 33.0142 49.7289 33.0038 53.0083C35.1247 54.3595 37.3075 55.2829 38.2294 55.2829H38.2363C39.1721 55.2829 41.4076 54.3313 43.5585 52.9466C43.5573 49.7009 44.2766 47.5129 44.2766 47.5129H32.2859Z" fill="#F6B897"/>
<path d="M47.6754 37.6726C47.6754 37.6726 54.4228 50.3446 48.3639 54.8702C48.3639 54.8702 52.7197 52.0961 51.8065 47.4481C50.8933 42.8 47.6754 37.6726 47.6754 37.6726Z" fill="#FED294"/>
<path opacity="0.5" d="M47.6754 37.6726C47.6754 37.6726 54.4228 50.3446 48.3639 54.8702C48.3639 54.8702 52.7197 52.0961 51.8065 47.4481C50.8933 42.8 47.6754 37.6726 47.6754 37.6726Z" fill="#FED294"/>
<path d="M21.7754 35.4495C21.7754 35.4495 17.3786 41.8143 22.4177 46.0141C22.4177 46.0141 17.0823 50.4305 21.1333 52.9416C21.1333 52.9416 16.9834 57.5745 21.9238 60.2156C21.9238 60.2156 19.256 60.995 20.0465 64.3722C20.837 67.7493 24.0482 67.3596 24.0482 67.3596C24.0482 67.3596 23.659 67.7056 24.038 68.4907C24.038 68.4907 22.7977 69.155 23.4868 71.2082C24.1758 73.2615 27.2421 75.3449 27.2421 75.3449C27.2421 75.3449 27.9312 72.8086 27.1387 71.0573C27.1387 71.0573 28.0345 72.3557 27.8966 73.4125C27.8966 73.4125 29.0335 70.5742 26.0707 68.4003C26.0707 68.4003 26.2774 67.6757 25.5883 67.102C25.5883 67.102 30.6184 65.4414 29.8605 61.6066C29.8605 61.6066 29.7917 63.2069 29.1026 63.8108C29.1026 63.8108 30.894 61.0632 28 58.5569C28 58.5569 30.6184 57.4699 31.1351 54.3296C31.1351 54.3296 30.6873 55.7186 29.7915 56.3829C29.7915 56.3829 31.6174 53.8465 29.5847 50.5252C29.5847 50.5252 35.2348 50.2234 35.8205 42.1312C36.4061 34.0389 26.0247 28.3151 21.7754 35.4495Z" fill="#FED294"/>
<path opacity="0.5" d="M21.7757 35.4495C21.7757 35.4495 20.8978 36.7212 20.3762 38.5023C20.4904 38.919 20.7591 39.2959 21.061 39.628C21.4364 40.0411 21.8767 40.4064 22.3257 40.7571C22.7768 41.1094 23.2442 41.4453 23.6936 41.7996C24.0183 42.0555 24.3523 42.3219 24.6018 42.6385C25.0098 43.1561 25.3312 43.739 25.6036 44.3192C25.7602 44.6529 25.8991 44.9954 25.991 45.3477C26.0654 45.633 26.1193 45.939 26.0571 46.2302C26.0092 46.4553 25.8685 46.6553 25.6206 46.7452C25.4253 46.816 25.2083 46.8192 24.995 46.7919C25.6399 47.0903 26.2118 47.5146 26.6708 48.0088C27.177 48.5541 27.5637 49.2005 27.7107 49.8956C27.7813 50.2298 27.7951 50.5717 27.7411 50.9087C27.689 51.2336 27.5795 51.5783 27.384 51.8608C27.0413 52.3558 26.3647 52.6287 25.75 52.7722C25.4172 52.8498 25.0717 52.8946 24.7271 52.8965C24.6981 52.8967 24.6689 52.8963 24.6395 52.896C25.1017 53.0981 25.5148 53.3827 25.8502 53.7291C26.2848 54.178 26.59 54.7183 26.7505 55.289C26.9164 55.8791 26.9336 56.5079 26.7764 57.1009C26.6304 57.6514 26.3112 58.1438 25.8403 58.5301C25.385 58.9035 24.8338 59.1731 24.2801 59.4187C24.4188 59.4544 24.5567 59.4927 24.6916 59.538C25.3171 59.7479 25.852 60.0833 26.251 60.5573C26.4763 60.8249 26.6519 61.1204 26.8135 61.4203C26.9871 61.7426 27.1374 62.0763 27.2382 62.4219C27.4353 63.0964 27.4238 63.8265 26.9883 64.4306C26.5929 64.9789 25.9449 65.3718 25.2741 65.6238C24.5813 65.884 23.8263 66.0152 23.0739 66.0321C22.3296 66.0489 21.5837 65.9497 20.8943 65.6988C20.7524 65.6471 20.6139 65.589 20.4772 65.528C21.4058 67.2334 23.1438 67.3812 23.794 67.3733C23.9335 67.3027 24.0931 67.2692 24.2572 67.2737C24.6058 67.2835 24.9818 67.4483 25.1613 67.7172C25.24 67.8351 25.2728 67.976 25.2282 68.1091C25.1773 68.2613 25.0433 68.3754 24.8954 68.4606C24.9374 68.4917 24.9786 68.5239 25.0177 68.5579C25.4888 68.9677 25.7654 69.5332 25.9717 70.0768C26.0784 70.3581 26.1662 70.6446 26.242 70.9335C26.3161 71.2162 26.3858 71.5011 26.4179 71.7902C26.4878 72.4201 26.3964 73.0681 26.1246 73.6559C26.035 73.8494 25.9251 74.0321 25.8001 74.2057C26.5791 74.8945 27.2425 75.3454 27.2425 75.3454C27.2425 75.3454 27.9316 72.8091 27.1392 71.0578C27.1392 71.0578 28.035 72.3563 27.8971 73.413C27.8971 73.413 29.034 70.5747 26.0711 68.4008C26.0711 68.4008 26.2779 67.6762 25.5888 67.1023C25.5888 67.1023 30.6189 65.4417 29.861 61.6069C29.861 61.6069 29.7921 63.2072 29.103 63.8111C29.103 63.8111 30.8945 61.0635 28.0005 58.5572C28.0005 58.5572 30.6189 57.4702 31.1356 54.3299C31.1356 54.3299 30.6877 55.719 29.7919 56.3832C29.7919 56.3832 31.6179 53.8469 29.5852 50.5256C29.5852 50.5256 35.2353 50.2237 35.821 42.1316C36.4063 34.0389 26.025 28.3151 21.7757 35.4495Z" fill="#FED294"/>
<path d="M51.4224 28.1861C51.4224 28.1861 49.8711 43.1437 47.7658 46.2433C45.6604 49.3431 39.8985 52.3444 38.2364 52.3444H38.2295C36.5675 52.3444 30.8055 49.3431 28.7002 46.2433C26.9729 43.7002 25.6186 33.1751 25.1879 29.4774C24.9502 27.4364 25.4915 25.3724 26.7835 23.6711C28.4978 21.4136 31.9008 19.1563 38.656 19.1563C52.1663 19.1563 51.4224 28.1861 51.4224 28.1861Z" fill="#F6B897"/>
<g opacity="0.8">
<path d="M37.3205 40.1278C37.3258 40.0749 37.2664 40.0322 37.2071 40.0216C37.1465 40.0109 37.0792 40.0247 37.035 40.0626C36.9908 40.1005 36.9739 40.163 37.0005 40.212C37.0319 40.2699 37.1185 40.2965 37.1873 40.2751C37.2564 40.2536 37.3035 40.1916 37.3086 40.1276" fill="#FED09E"/>
<path d="M37.6708 40.1835C37.6447 40.1552 37.5991 40.1431 37.5585 40.1505C37.5179 40.1579 37.4828 40.1834 37.4632 40.2155C37.4506 40.2363 37.4439 40.2608 37.4504 40.2836C37.4561 40.3037 37.4717 40.3208 37.491 40.3324C37.5451 40.3646 37.627 40.348 37.6637 40.3008C37.7005 40.2536 37.6909 40.1842 37.6459 40.1427" fill="#FED09E"/>
<path d="M38.3947 39.9602C38.3644 39.9531 38.3322 39.9469 38.3018 39.9535C38.2712 39.9602 38.2434 39.9837 38.2452 40.0112C38.2462 40.0264 38.256 40.0404 38.2689 40.051C38.3016 40.0778 38.3598 40.0804 38.3896 40.051C38.4194 40.0216 38.402 39.9647 38.3576 39.9583" fill="#FED09E"/>
<path d="M39.1492 40.1291C39.2047 40.1149 39.2662 40.1146 39.3191 40.135C39.372 40.1554 39.415 40.1983 39.4236 40.2482C39.4323 40.2984 39.4023 40.3535 39.3495 40.3737C39.3274 40.3822 39.3027 40.3845 39.2788 40.3834C39.2088 40.3803 39.1392 40.3457 39.1086 40.2906C39.0778 40.2353 39.0932 40.1609 39.1496 40.1244" fill="#FED09E"/>
<path d="M40.3209 39.0521C40.2756 39.0423 40.2276 39.0323 40.1824 39.0431C40.1373 39.054 40.0974 39.0935 40.1081 39.1334C40.1185 39.1725 40.171 39.1925 40.2166 39.1891C40.2548 39.1863 40.2937 39.1695 40.3117 39.1398C40.3296 39.1101 40.3197 39.0674 40.2856 39.052" fill="#FED09E"/>
<path d="M39.3397 38.5624C39.2909 38.534 39.2246 38.5057 39.1787 38.5373C39.1674 38.5451 39.1592 38.5556 39.154 38.5672C39.1321 38.6168 39.1824 38.6789 39.243 38.6772C39.3036 38.6754 39.3493 38.6106 39.3239 38.5624" fill="#FED09E"/>
<path d="M37.6416 37.7077C37.6018 37.6766 37.5434 37.665 37.4921 37.678C37.4408 37.6908 37.3984 37.7278 37.3834 37.7726C37.3777 37.7895 37.3757 37.8078 37.3816 37.8248C37.3866 37.8391 37.397 37.8518 37.4091 37.8625C37.4659 37.913 37.5694 37.9187 37.6282 37.8699C37.6872 37.8211 37.6831 37.7245 37.6164 37.6844" fill="#FED09E"/>
<path d="M38.1062 38.2001C38.0564 38.163 37.9791 38.1517 37.9247 38.1832C37.8702 38.2148 37.855 38.2921 37.9028 38.3312C37.9156 38.3417 37.9316 38.3488 37.9483 38.3535C38.0014 38.368 38.0645 38.354 38.0998 38.3163C38.1352 38.2786 38.1371 38.2186 38.1008 38.1816" fill="#FED09E"/>
<path d="M38.5379 39.0911C38.5821 39.0821 38.6314 39.0826 38.6697 39.104C38.7079 39.1255 38.7297 39.172 38.7085 39.2073C38.6922 39.2344 38.6559 39.2481 38.6211 39.252C38.574 39.2574 38.5215 39.2463 38.4927 39.2133C38.4639 39.1803 38.4712 39.1238 38.5142 39.1063" fill="#FED09E"/>
<path d="M38.5692 39.357C38.601 39.3841 38.586 39.44 38.5436 39.4515C38.5012 39.4633 38.4522 39.4253 38.4605 39.3871C38.4688 39.3488 38.53 39.329 38.5647 39.3533" fill="#FED09E"/>
<path d="M36.9963 39.204C36.9387 39.1919 36.8714 39.1815 36.8255 39.2142C36.8089 39.2259 36.7971 39.2425 36.7904 39.2603C36.7694 39.3165 36.8057 39.3843 36.8685 39.4059C36.9312 39.4275 37.0105 39.3995 37.0389 39.3459C37.0671 39.2922 37.0399 39.2213 36.9803 39.1934" fill="#FED09E"/>
<path d="M36.3778 39.2896C36.3364 39.2787 36.2882 39.2813 36.2537 39.3043C36.2192 39.3272 36.2042 39.3732 36.2273 39.4054C36.2381 39.4204 36.2555 39.431 36.274 39.4381C36.32 39.4554 36.3805 39.449 36.4103 39.4137C36.4401 39.3784 36.4192 39.3164 36.3695 39.3105" fill="#FED09E"/>
<path d="M36.3889 38.8177C36.434 38.7869 36.512 38.8182 36.5171 38.8682C36.5222 38.9182 36.4553 38.9611 36.4017 38.9438C36.348 38.9263 36.3281 38.8584 36.3634 38.8191" fill="#FED09E"/>
<path d="M34.9366 39.6461C34.8737 39.6224 34.7867 39.6257 34.7531 39.6779C34.7231 39.7242 34.7583 39.7897 34.8163 39.806C34.8741 39.8222 34.9411 39.793 34.9695 39.746C34.9871 39.7169 34.9914 39.6808 34.9757 39.6509C34.9599 39.621 34.922 39.5999 34.8849 39.6046" fill="#FED09E"/>
<path d="M39.4671 39.341C39.4497 39.3156 39.4083 39.3053 39.3785 39.3193C39.3487 39.3333 39.3361 39.3701 39.3524 39.3959C39.3688 39.4218 39.4118 39.4315 39.4402 39.4152C39.4686 39.399 39.4753 39.3599 39.4534 39.3374" fill="#FED09E"/>
<path d="M38.9271 39.5288C38.8733 39.5136 38.8086 39.5375 38.7833 39.5821C38.7784 39.5909 38.7748 39.6006 38.7744 39.6104C38.774 39.6227 38.7788 39.6348 38.7863 39.6452C38.8151 39.6849 38.8873 39.6931 38.9267 39.6607C38.9662 39.6284 38.9616 39.5648 38.9181 39.5369" fill="#FED09E"/>
<path d="M37.7599 38.9861C37.72 39.011 37.6628 39.0181 37.6222 38.994C37.5816 38.97 37.5707 38.9114 37.6078 38.8834C37.6222 38.8725 37.6411 38.8675 37.6599 38.8652C37.6952 38.8613 37.7346 38.868 37.7583 38.8915C37.782 38.915 37.7824 38.9567 37.753 38.9743" fill="#FED09E"/>
<path d="M41.8883 39.6177C41.8538 39.581 41.7729 39.5966 41.7597 39.6425C41.7465 39.6887 41.8102 39.7359 41.8597 39.7165C41.9092 39.6972 41.911 39.6234 41.8623 39.6026" fill="#FED09E"/>
<path d="M43.1952 40.6617C43.262 40.6153 43.3786 40.6677 43.3786 40.7424C43.3788 40.8171 43.2693 40.8707 43.1946 40.8349C43.1198 40.7989 43.1094 40.6943 43.1725 40.6444" fill="#FED09E"/>
<path d="M44.0529 40.759C44.114 40.7908 44.1129 40.8833 44.0507 40.9137C43.9886 40.9443 43.898 40.8971 43.8988 40.8347C43.8996 40.7725 43.9915 40.7272 44.0529 40.759Z" fill="#FED09E"/>
<path d="M44.6356 40.6162C44.587 40.594 44.5208 40.6431 44.5367 40.689C44.5527 40.7349 44.6369 40.7445 44.6667 40.7042C44.6963 40.6639 44.6537 40.6011 44.5991 40.6037" fill="#FED09E"/>
<path d="M46.3509 39.7494C46.3898 39.7434 46.433 39.7382 46.4661 39.7568C46.5227 39.7888 46.5044 39.8748 46.445 39.9028C46.3882 39.9296 46.3059 39.9073 46.2832 39.8542C46.2607 39.8013 46.3154 39.7335 46.3793 39.7406" fill="#FED09E"/>
<path d="M45.9822 41.1769C45.9206 41.121 45.8076 41.1148 45.7419 41.167C45.6762 41.2192 45.675 41.3228 45.7425 41.3731C45.81 41.4234 45.9309 41.4022 45.9668 41.3311C45.9976 41.2702 45.967 41.2002 45.935 41.1399" fill="#FED09E"/>
<path d="M47.6821 40.4936C47.6006 40.4258 47.4535 40.4345 47.3824 40.5109C47.3116 40.5873 47.3317 40.7149 47.4233 40.7721C47.5148 40.8292 47.6586 40.8045 47.719 40.7215C47.7794 40.6385 47.745 40.5142 47.6482 40.4642" fill="#FED09E"/>
<path d="M47.7464 41.2021C47.7092 41.1303 47.5689 41.1305 47.5316 41.2022C47.4943 41.274 47.5861 41.3667 47.6725 41.3447C47.7589 41.3228 47.7798 41.2017 47.705 41.1582" fill="#FED09E"/>
<path d="M47.0798 41.9644C47.0929 41.8791 47.2152 41.823 47.3026 41.862C47.39 41.9011 47.4099 42.0207 47.3389 42.08C47.3252 42.0913 47.3095 42.1004 47.2925 42.1075C47.2321 42.133 47.157 42.1311 47.1006 42.0994C47.0441 42.0679 47.01 42.0069 47.0201 41.9488" fill="#FED09E"/>
<path d="M48.7681 42.2026C48.7028 42.1765 48.6209 42.1667 48.5624 42.2033C48.5026 42.2408 48.4898 42.3242 48.5359 42.3741C48.5821 42.4241 48.678 42.4305 48.7322 42.3871C48.7865 42.3437 48.7878 42.2595 48.7352 42.2147" fill="#FED09E"/>
<path d="M48.2812 42.1905C48.2453 42.1519 48.1589 42.1789 48.1569 42.2287C48.1549 42.2785 48.2344 42.312 48.2792 42.2811C48.3238 42.2501 48.3082 42.177 48.2547 42.1601" fill="#FED09E"/>
<path d="M48.2645 42.5047C48.3032 42.4798 48.3638 42.4836 48.3945 42.5158C48.4253 42.5481 48.4162 42.6045 48.3744 42.6249C48.3326 42.6453 48.2701 42.6183 48.2669 42.5765C48.2639 42.5389 48.3006 42.509 48.334 42.4852" fill="#FED09E"/>
<path d="M48.8345 41.3319C48.7706 41.3088 48.6889 41.3292 48.6514 41.3802C48.6139 41.4312 48.6277 41.5069 48.6834 41.5431C48.739 41.5792 48.8282 41.5669 48.8664 41.5164C48.9045 41.4659 48.8802 41.3871 48.8169 41.3626" fill="#FED09E"/>
<path d="M48.3367 40.8992C48.3795 40.8631 48.4634 40.8816 48.4817 40.931C48.492 40.9588 48.4827 40.9912 48.4602 41.013C48.4229 41.0491 48.3509 41.0517 48.3103 41.0182C48.2698 40.9846 48.2684 40.9215 48.3075 40.8868" fill="#FED09E"/>
<path d="M48.9735 39.4721C48.9299 39.4619 48.8802 39.4765 48.852 39.5072C48.8238 39.5382 48.8187 39.5838 48.8396 39.6188C48.8877 39.6523 48.9678 39.6409 49.0011 39.5956C49.0345 39.5503 49.0134 39.4816 48.9585 39.4571" fill="#FED09E"/>
<path d="M33.079 40.6115C33.0982 40.6483 33.0642 40.6976 33.0181 40.6998C32.9719 40.7019 32.9321 40.6561 32.9467 40.6177C32.9613 40.5793 33.0246 40.5636 33.0599 40.5897" fill="#FED09E"/>
<path d="M32.401 41.0448C32.355 41.0152 32.2775 41.0517 32.2802 41.1015C32.283 41.1513 32.3641 41.1812 32.4067 41.1478C32.4416 41.1106 32.4286 41.0468 32.381 41.0226" fill="#FED09E"/>
<path d="M30.8831 41.1971C30.9243 41.1632 30.9738 41.1341 31.0298 41.1276C31.0859 41.121 31.1488 41.1421 31.1737 41.1865C31.2025 41.238 31.1679 41.3063 31.1078 41.3291C31.0478 41.352 30.9732 41.3328 30.9292 41.2904C30.8852 41.2481 30.8695 41.1867 30.8779 41.1298" fill="#FED09E"/>
<path d="M30.6326 39.556C30.6862 39.5755 30.7018 39.6471 30.6604 39.6826C30.619 39.7182 30.5377 39.7026 30.5166 39.6552C30.4957 39.6079 30.5436 39.5484 30.6016 39.5501" fill="#FED09E"/>
<path d="M29.8698 41.4294C29.8236 41.4154 29.7727 41.4073 29.7264 41.4204C29.68 41.4336 29.641 41.4737 29.6473 41.516C29.65 41.5347 29.6611 41.5522 29.6765 41.5653C29.7262 41.6082 29.8209 41.598 29.8572 41.546C29.8937 41.4937 29.8607 41.4152 29.7946 41.3961" fill="#FED09E"/>
<path d="M29.446 40.6081C29.3716 40.6492 29.2655 40.6388 29.2034 40.5844C29.1829 40.5664 29.1667 40.5437 29.1619 40.5187C29.1485 40.4474 29.2418 40.3843 29.3221 40.4009C29.4022 40.4175 29.4539 40.4936 29.4511 40.5657C29.434 40.5666 29.4166 40.5674 29.3995 40.5683" fill="#FED09E"/>
<path d="M28.2905 40.8272C28.2518 40.8243 28.2104 40.8335 28.1828 40.8573C28.1552 40.8812 28.1443 40.9211 28.163 40.951C28.1916 40.9965 28.2806 40.9925 28.3084 40.9465C28.3363 40.9007 28.2984 40.8371 28.2404 40.8257" fill="#FED09E"/>
<path d="M28.8048 41.3352C28.7354 41.2999 28.6399 41.2667 28.5829 41.3164C28.5409 41.3528 28.5499 41.4182 28.588 41.4578C28.6379 41.5098 28.7405 41.5221 28.7932 41.4721C28.8458 41.4222 28.8058 41.3207 28.7283 41.3219" fill="#FED09E"/>
<path d="M29.2676 41.1499C29.2358 41.1279 29.1875 41.1265 29.1544 41.1468C29.1212 41.167 29.1056 41.2073 29.1183 41.241C29.1374 41.2929 29.224 41.3139 29.2704 41.2775C29.3167 41.241 29.3013 41.1625 29.2431 41.1426" fill="#FED09E"/>
<path d="M29.304 41.9272C29.281 41.9299 29.2581 41.9168 29.2354 41.9204C29.2109 41.9242 29.1954 41.9459 29.1892 41.9669C29.1823 41.9905 29.1837 42.0167 29.1975 42.0378C29.2111 42.0591 29.2382 42.0741 29.266 42.0726C29.3003 42.0705 29.3277 42.0435 29.335 42.0141C29.3421 41.9848 29.3327 41.954 29.3179 41.9268" fill="#FED09E"/>
<path d="M28.5183 42.3356C28.4717 42.3209 28.4137 42.3448 28.3973 42.3857C28.3808 42.4267 28.4092 42.4772 28.4563 42.4907C28.5035 42.504 28.5605 42.4774 28.5737 42.4355C28.5861 42.3961 28.5623 42.3537 28.5271 42.3266" fill="#FED09E"/>
<path d="M28.2447 42.084C28.2822 42.0929 28.2974 42.1413 28.2703 42.1657C28.2431 42.19 28.1875 42.1778 28.1766 42.1451C28.1658 42.1124 28.2054 42.0759 28.2433 42.0837" fill="#FED09E"/>
<path d="M27.529 41.0631C27.5008 41.0498 27.4637 41.0519 27.4391 41.0697C27.4144 41.0873 27.4047 41.1202 27.4186 41.1454C27.4324 41.1707 27.4695 41.1845 27.4992 41.1741C27.543 41.1591 27.5511 41.1037 27.5275 41.0681" fill="#FED09E"/>
<path d="M30.6978 39.6792C30.6632 39.6556 30.6048 39.6678 30.5865 39.7028C30.5833 39.7085 30.5814 39.7147 30.5816 39.7211C30.5818 39.7313 30.5879 39.7408 30.5958 39.7482C30.6186 39.7693 30.6613 39.7726 30.6853 39.7526C30.7094 39.7325 30.7054 39.6917 30.6759 39.6782" fill="#FED09E"/>
<path d="M27.6515 39.6642C27.6277 39.644 27.5908 39.6365 27.559 39.6454C27.5275 39.6542 27.5024 39.6792 27.4963 39.7078C27.4939 39.7192 27.4945 39.7316 27.5004 39.742C27.5069 39.7532 27.5194 39.7612 27.5324 39.7669C27.5709 39.7837 27.6218 39.7821 27.6519 39.7555C27.6821 39.7287 27.678 39.676 27.6393 39.6597" fill="#FED09E"/>
<path d="M27.1325 39.0266C27.1187 39.0005 27.0662 39.0045 27.0556 39.0318C27.0449 39.0591 27.0789 39.09 27.111 39.0842C27.1286 39.0811 27.144 39.0683 27.1463 39.0527C27.1487 39.0371 27.1359 39.0204 27.1181 39.0181" fill="#FED09E"/>
<path d="M31.5732 40.385C31.5542 40.3763 31.5282 40.3832 31.5179 40.3997C31.5079 40.4161 31.5154 40.4391 31.5339 40.4483C31.5524 40.4574 31.5789 40.451 31.5895 40.4348C31.602 40.4159 31.5927 40.3919 31.5801 40.373" fill="#FED09E"/>
<path d="M32.358 40.0553C32.3203 40.0259 32.254 40.0328 32.2252 40.0691C32.1964 40.1054 32.2124 40.1623 32.2568 40.1829C32.3013 40.2035 32.3639 40.1829 32.3818 40.1417C32.3919 40.1187 32.3889 40.0928 32.381 40.0691" fill="#FED09E"/>
<path d="M49.023 40.1455C48.9666 40.1291 48.9001 40.178 48.9086 40.2295C48.9171 40.2812 48.9966 40.3115 49.0455 40.2817C49.0944 40.252 49.0899 40.1761 49.0378 40.151" fill="#FED09E"/>
</g>
<path opacity="0.3" d="M31.5966 43.7919C34.0793 43.7919 36.092 42.0279 36.092 39.852C36.092 37.676 34.0793 35.912 31.5966 35.912C29.1138 35.912 27.1011 37.676 27.1011 39.852C27.1011 42.0279 29.1138 43.7919 31.5966 43.7919Z" fill="url(#paint0_radial_33_10455)"/>
<path opacity="0.3" d="M45.3092 43.7919C47.792 43.7919 49.8047 42.0279 49.8047 39.852C49.8047 37.676 47.792 35.912 45.3092 35.912C42.8264 35.912 40.8137 37.676 40.8137 39.852C40.8137 42.0279 42.8264 43.7919 45.3092 43.7919Z" fill="url(#paint1_radial_33_10455)"/>
<path d="M39.2949 21.1496C39.2949 21.1496 39.6853 23.0151 38.9309 23.9446C38.9309 23.9446 33.4348 20.7967 29.6326 24.6388C29.6326 24.6388 29.6326 18.6406 34.8663 18.6406C40.0999 18.6406 39.2949 21.1496 39.2949 21.1496Z" fill="#FED294"/>
<path opacity="0.5" d="M39.2949 21.1496C39.2949 21.1496 39.6853 23.0151 38.9309 23.9446C38.9309 23.9446 33.4348 20.7967 29.6326 24.6388C29.6326 24.6388 29.6326 18.6406 34.8663 18.6406C40.0999 18.6406 39.2949 21.1496 39.2949 21.1496Z" fill="#FED294"/>
<path opacity="0.5" d="M38.2693 42.6002C38.3036 42.6002 38.3378 42.5935 38.3693 42.5816C38.9089 42.3779 39.4117 42.4197 39.9017 42.3519C40.4064 42.2821 40.2438 41.3824 40.2438 41.3824H40.2525C40.2525 41.3824 40.7388 42.4747 40.1614 43.0475C39.5837 43.6203 38.2851 43.4337 38.2851 43.4337H38.2626C38.2626 43.4337 36.9637 43.6203 36.3863 43.0475C35.8087 42.4747 36.2952 41.3824 36.2952 41.3824C36.2952 41.3824 36.1326 42.2821 36.6373 42.3519C37.1273 42.4197 37.6303 42.3779 38.1697 42.5816C38.2008 42.5935 38.235 42.6002 38.2693 42.6002Z" fill="#F6B897"/>
<path d="M37.5989 43.1328C37.5873 43.1341 37.5388 43.0897 37.5297 43.0837C37.4644 43.0396 37.3965 42.9986 37.3265 42.9606C37.056 42.8138 36.7276 42.6941 36.4034 42.7367C36.421 42.7344 36.5123 42.819 36.5275 42.8292C36.6058 42.8817 36.6873 42.9312 36.7739 42.9728C37.0219 43.0925 37.3147 43.1651 37.5989 43.1328Z" fill="#754C29"/>
<path d="M38.9493 43.1328C38.961 43.1342 39.0095 43.0897 39.0186 43.0837C39.0837 43.0396 39.1517 42.9986 39.2218 42.9606C39.4922 42.8138 39.8207 42.6942 40.1448 42.7367C40.1273 42.7344 40.0359 42.819 40.0207 42.8292C39.9422 42.8818 39.8609 42.9312 39.7743 42.9729C39.5264 43.0925 39.2334 43.1651 38.9493 43.1328Z" fill="#754C29"/>
<path d="M40.2523 41.3824C40.9568 42.9044 40.0777 43.7272 38.2794 43.463C37.9941 43.4931 37.5899 43.5279 37.2591 43.4809C35.9488 43.2993 35.8758 42.2946 36.295 41.3823C36.0679 42.0163 35.9766 42.9537 36.8186 43.2544C37.2683 43.4089 37.7771 43.457 38.2571 43.4044C38.7481 43.4509 39.2642 43.4053 39.7216 43.24C40.5547 42.9404 40.463 42.0157 40.2523 41.3824Z" fill="#F6B687"/>
<path d="M40.2523 41.3824C40.9568 42.9044 40.0777 43.7272 38.2794 43.463C37.9941 43.4931 37.5899 43.5279 37.2591 43.4809C35.9488 43.2993 35.8758 42.2946 36.295 41.3823C36.0679 42.0163 35.9766 42.9537 36.8186 43.2544C37.2683 43.4089 37.7771 43.457 38.2571 43.4044C38.7481 43.4509 39.2642 43.4053 39.7216 43.24C40.5547 42.9404 40.463 42.0157 40.2523 41.3824Z" fill="#F6B687"/>
<path d="M42.3612 45.3914C42.4111 45.3373 41.3938 47.4729 38.2157 47.5182C38.2163 47.5182 38.2169 47.5182 38.2174 47.5182C35.0398 47.4525 34.0394 45.3101 34.0889 45.3646C36.7874 46.0674 39.6587 46.0764 42.3612 45.3914Z" fill="#B55750"/>
<path opacity="0.6" d="M42.3612 45.3914C42.4111 45.3373 41.3938 47.4729 38.2157 47.5182C38.2163 47.5182 38.2169 47.5182 38.2174 47.5182C35.0398 47.4525 34.0394 45.3101 34.0889 45.3646C36.7874 46.0674 39.6587 46.0764 42.3612 45.3914Z" fill="#B55750"/>
<path d="M33.7689 45.1776C33.7875 45.1439 34.6186 45.8145 36.3306 46.1539C37.9914 46.4952 40.5331 46.5053 42.794 45.1983C42.7982 45.1987 42.002 45.4152 41.1786 45.3033C40.3465 45.2035 39.2137 45.0277 38.2431 45.3235C38.2222 45.3173 37.1928 45.0021 35.7066 45.2708C34.167 45.5146 33.7565 45.1608 33.7689 45.1776Z" fill="#B55750"/>
<path d="M26.4926 32.349C26.4926 32.349 27.4941 32.2743 28.4641 31.982C29.4341 31.6896 30.1836 31.8915 30.9648 32.2468C31.746 32.6021 34.4687 33.5036 34.4285 33.1867C34.4285 33.1867 34.6485 33.288 34.6429 33.0475C34.6429 33.0475 34.751 31.2817 33.5727 31.1061C32.3944 30.9304 29.5312 30.4185 28.676 30.836C27.8208 31.2537 27.1741 31.7273 26.4926 32.349Z" fill="#754C29"/>
<path d="M34.7498 31.4804C34.7498 31.4804 34.5411 31.4422 34.6125 31.6688C34.684 31.8957 34.9459 32.4799 34.7905 33.2506C34.7905 33.2506 34.8643 33.4173 34.9607 33.1445C35.0572 32.8716 35.16 32.0271 34.7498 31.4804Z" fill="#754C29"/>
<path d="M31.5132 38.5814C31.5132 38.5814 32.8949 38.7723 34.8529 38.1485C34.8529 38.1485 34.8341 34.5969 31.6517 34.1119C28.4693 33.6268 28.0558 35.5245 28.0558 35.5245C28.0558 35.5245 28.2714 38.287 31.5132 38.5814Z" fill="white"/>
<path d="M33.8774 36.989C34.3177 36.0502 33.8063 34.9763 32.7352 34.5904C31.664 34.2044 30.4387 34.6527 29.9983 35.5914C29.558 36.5302 30.0694 37.6041 31.1406 37.99C32.2118 38.376 33.4371 37.9278 33.8774 36.989Z" fill="#44C8F5"/>
<path d="M33.3412 36.7977C33.6605 36.1184 33.291 35.3409 32.516 35.0611C31.7409 34.7812 30.8537 35.1051 30.5344 35.7843C30.2151 36.4636 30.5846 37.2411 31.3597 37.521C32.1347 37.8008 33.0219 37.477 33.3412 36.7977Z" fill="#241F20"/>
<path d="M32.3922 35.9157C32.3922 36.2211 32.6747 36.4687 33.0229 36.4687C33.3713 36.4687 33.6538 36.2211 33.6538 35.9157C33.6538 35.6104 33.3713 35.363 33.0229 35.363C32.6745 35.3628 32.3922 35.6104 32.3922 35.9157Z" fill="white"/>
<path d="M34.8528 38.1484C34.8528 38.1484 35.3362 35.2604 32.4796 34.084C29.6231 32.9076 27.0747 34.9813 27.0747 34.9813C27.0747 34.9813 27.3156 35.4035 28.0556 35.5242C28.0556 35.5242 29.501 34.182 31.6864 34.2875C33.872 34.3931 34.8011 37.2284 34.8528 38.1484Z" fill="#754C29"/>
<path d="M28.1936 35.1325L28.0557 35.5245C28.0557 35.5245 28.515 38.8588 32.7854 38.5275C32.7854 38.5275 31.1602 38.9746 29.4029 38.0638C27.6458 37.1528 27.7213 35.4306 28.1936 35.1325Z" fill="#754C29"/>
<path d="M50.0701 32.349C50.0701 32.349 49.0685 32.2743 48.0985 31.982C47.1285 31.6896 46.3791 31.8915 45.5979 32.2468C44.8167 32.6021 42.0939 33.5036 42.1342 33.1867C42.1342 33.1867 41.9142 33.288 41.9197 33.0475C41.9197 33.0475 41.8116 31.2817 42.9899 31.1061C44.1682 30.9304 47.0315 30.4185 47.8867 30.836C48.7418 31.2537 49.3885 31.7273 50.0701 32.349Z" fill="#754C29"/>
<path d="M41.8131 31.4804C41.8131 31.4804 42.0218 31.4422 41.9504 31.6688C41.879 31.8957 41.617 32.4799 41.7725 33.2506C41.7725 33.2506 41.6987 33.4173 41.6022 33.1445C41.5056 32.8716 41.403 32.0271 41.8131 31.4804Z" fill="#754C29"/>
<path d="M45.0495 38.5814C45.0495 38.5814 43.6678 38.7723 41.7098 38.1485C41.7098 38.1485 41.7286 34.5969 44.911 34.1119C48.0934 33.6268 48.5069 35.5245 48.5069 35.5245C48.5069 35.5245 48.2911 38.287 45.0495 38.5814Z" fill="white"/>
<path d="M45.4212 37.9909C46.4924 37.605 47.0038 36.5311 46.5634 35.5923C46.1231 34.6535 44.8978 34.2053 43.8266 34.5912C42.7554 34.9771 42.244 36.051 42.6844 36.9898C43.1247 37.9286 44.35 38.3768 45.4212 37.9909Z" fill="#44C8F5"/>
<path d="M45.202 37.5199C45.9771 37.24 46.3465 36.4625 46.0272 35.7832C45.7079 35.104 44.8208 34.7802 44.0457 35.06C43.2706 35.3398 42.9012 36.1173 43.2205 36.7966C43.5398 37.4759 44.4269 37.7997 45.202 37.5199Z" fill="#241F20"/>
<path d="M44.1703 35.9157C44.1703 36.2211 43.8878 36.4687 43.5395 36.4687C43.1911 36.4687 42.9086 36.2211 42.9086 35.9157C42.9086 35.6104 43.1911 35.363 43.5395 35.363C43.8878 35.3628 44.1703 35.6104 44.1703 35.9157Z" fill="white"/>
<path d="M41.71 38.1484C41.71 38.1484 41.2267 35.2604 44.0832 34.084C46.9397 32.9076 49.4881 34.9813 49.4881 34.9813C49.4881 34.9813 49.2472 35.4035 48.5073 35.5242C48.5073 35.5242 47.0618 34.182 44.8764 34.2875C42.6908 34.3931 41.7617 37.2284 41.71 38.1484Z" fill="#754C29"/>
<path d="M48.3691 35.1325L48.507 35.5245C48.507 35.5245 48.0477 38.8588 43.7773 38.5275C43.7773 38.5275 45.4025 38.9746 47.1598 38.0638C48.9171 37.1528 48.8416 35.4306 48.3691 35.1325Z" fill="#754C29"/>
<path d="M20.2272 37.9052C31.0858 37.1505 31.5641 21.9322 35.0561 20.6745C38.548 19.4167 38.9308 23.9447 38.9308 23.9447C38.9308 23.9447 42.4811 21.8103 42.6685 18.6897C42.8559 15.5691 30.0656 7.72649 24.0687 19.5931C24.0687 19.5931 21.8667 20.9481 20.7423 25.0953C20.7423 25.0953 16.432 27.8464 17.2284 32.4862C18.025 37.1261 20.2272 37.9052 20.2272 37.9052Z" fill="#FED294"/>
<path opacity="0.5" d="M33.9868 20.518C32.5542 20.6813 31.2946 21.3516 30.2997 22.2477C29.3627 23.0918 28.643 24.1082 28.0459 25.1582C27.4742 26.1632 26.9972 27.2084 26.3805 28.194C25.8058 29.1125 25.0895 30.0397 24.0418 30.5869C23.0361 31.1121 21.7201 31.1701 20.7238 30.594C20.2287 30.3077 19.8521 29.8851 19.6319 29.404C19.4066 28.9117 19.3402 28.3678 19.3638 27.841C19.3891 27.2787 19.5183 26.7167 19.744 26.19C19.8225 26.0068 19.9132 25.8261 20.0178 25.652C18.8267 26.6752 16.6418 29.068 17.2287 32.4863C18.0251 37.1263 20.2273 37.9053 20.2273 37.9053C31.0859 37.1507 31.5642 21.9323 35.0562 20.6747C35.1941 20.6251 35.3265 20.5855 35.4547 20.5531C34.9724 20.4708 34.4744 20.4625 33.9868 20.518Z" fill="#FED294"/>
<path opacity="0.5" d="M38.9309 23.9446C38.9309 23.9446 39.0589 23.8675 39.2674 23.7218C39.3907 23.109 39.424 22.4863 39.3076 21.8748C39.1948 21.2826 38.933 20.696 38.486 20.2354C38.0303 19.766 37.4039 19.4482 36.717 19.3213C36.0392 19.1961 35.3278 19.262 34.667 19.4302C34.146 19.5628 33.654 19.776 33.2227 20.0652C32.3697 20.6377 31.802 21.4697 31.4114 22.334C30.9839 23.2797 30.7396 24.2827 30.5418 25.2822C30.351 26.2455 30.2147 27.2168 30.0109 28.1781C29.7811 29.2625 29.4396 30.3282 29.0015 31.362C28.5858 32.3426 28.0849 33.3034 27.4635 34.1988C31.6286 29.3951 32.5926 21.562 35.0558 20.6749C38.5481 19.4169 38.9309 23.9446 38.9309 23.9446Z" fill="#FED294"/>
<path d="M38.9307 23.9446C38.9307 23.9446 45.3466 20.3787 48.5034 28.0092C51.6602 35.6397 49.6604 39.9666 49.6604 39.9666C49.6604 39.9666 55.8915 36.1736 56.5025 30.6405C57.1134 25.1073 53.2948 23.8578 53.2948 23.8578C53.2948 23.8578 53.4984 19.1726 49.527 18.0569C49.527 18.0569 47.2868 12.5237 39.6495 15.9597C39.6495 15.9597 43.2523 19.346 38.9307 23.9446Z" fill="#FED294"/>
<path opacity="0.5" d="M49.3808 30.4508C49.3901 30.0871 49.3785 29.723 49.339 29.3607C49.2469 28.5146 49.0167 27.6807 48.6711 26.887C48.3607 26.1745 47.9548 25.4889 47.4722 24.8541C47.0854 24.3453 46.634 23.8693 46.0909 23.4827C45.5642 23.1078 44.9542 22.8312 44.3002 22.6723C43.5585 22.4922 42.7631 22.4481 41.9986 22.5188C41.3179 22.5817 40.6629 22.7721 40.105 23.1248C39.8202 23.3049 39.5676 23.5188 39.338 23.751C40.7976 23.122 45.8242 21.5333 48.5034 28.0094C48.8577 28.8652 49.1463 29.6794 49.3808 30.4508Z" fill="#FED294"/>
<path opacity="0.5" d="M54.3751 33.7529C53.874 33.7422 53.3925 33.6255 52.9638 33.3959C52.5136 33.1547 52.1435 32.8148 51.8342 32.4434C51.1771 31.6546 50.7685 30.7236 50.4044 29.808C49.9589 28.688 49.5273 27.5482 48.8974 26.4951C48.5579 25.9275 48.1511 25.3907 47.6421 24.9285C47.1973 24.5247 46.6851 24.1799 46.1278 23.9033C45.0545 23.3708 43.8174 23.0921 42.5836 23.1173C44.5719 23.1949 46.9384 24.2256 48.5036 28.009C51.6604 35.6395 49.6606 39.9664 49.6606 39.9664C49.6606 39.9664 53.7929 37.4508 55.657 33.5283C55.2581 33.6818 54.8255 33.7626 54.3751 33.7529Z" fill="#FED294"/>
<path d="M26.5383 38.0539C26.2491 37.3614 25.9133 36.6804 25.3495 36.1221C24.3152 35.0981 22.4097 35.5798 21.8659 36.7893C21.4362 37.7447 21.8994 38.8454 22.4413 39.6907C22.9402 40.4687 23.5958 41.2619 24.5794 41.6146C25.399 41.9086 26.8967 42.0092 27.2228 41.066C27.4925 40.2859 27.0238 39.2576 26.7304 38.5267C26.6675 38.3692 26.604 38.2112 26.5383 38.0539Z" fill="#F6B897"/>
<path d="M25.2571 38.2144C25.2571 38.2144 24.5378 37.8807 24.4956 38.647C24.4532 39.4132 25.2288 39.8458 25.2288 39.8458C25.2288 39.8458 23.0855 40.1671 22.874 38.2021C22.6623 36.237 24.8339 36.4101 25.2571 38.2144Z" fill="#F6B897"/>
<path d="M50.0243 38.0539C50.3137 37.3615 50.6493 36.6805 51.2131 36.1222C52.2474 35.0981 54.1529 35.5798 54.6968 36.7894C55.1264 37.7448 54.6632 38.8454 54.1213 39.6907C53.6224 40.4688 52.9669 41.262 51.9832 41.6147C51.1636 41.9086 49.6659 42.0092 49.3396 41.0661C49.0699 40.286 49.5386 39.2576 49.832 38.5268C49.8953 38.3693 49.9586 38.2113 50.0243 38.0539Z" fill="#F6B897"/>
<path d="M51.3049 38.2145C51.3049 38.2145 52.0242 37.8808 52.0664 38.6471C52.1086 39.4133 51.3331 39.8459 51.3331 39.8459C51.3331 39.8459 53.4765 40.1671 53.688 38.2022C53.8995 36.2371 51.7281 36.4102 51.3049 38.2145Z" fill="#F6B897"/>
<path d="M50.4983 36.8845C50.4983 36.8845 47.047 43.3662 50.1462 45.681C50.1462 45.681 47.9182 44.2621 48.3853 41.8846C48.8525 39.5072 50.4983 36.8845 50.4983 36.8845Z" fill="#FED294"/>
<path opacity="0.5" d="M50.4983 36.8845C50.4983 36.8845 47.047 43.3662 50.1462 45.681C50.1462 45.681 47.9182 44.2621 48.3853 41.8846C48.8525 39.5072 50.4983 36.8845 50.4983 36.8845Z" fill="#FED294"/>
<path d="M21.249 36.5103C21.249 36.5103 17.0601 44.3769 20.8215 47.1865C20.8215 47.1865 18.1175 45.4643 18.6845 42.5788C19.2514 39.6934 21.249 36.5103 21.249 36.5103Z" fill="#FED294"/>
<path opacity="0.5" d="M21.249 36.5103C21.249 36.5103 17.0601 44.3769 20.8215 47.1865C20.8215 47.1865 18.1175 45.4643 18.6845 42.5788C19.2514 39.6934 21.249 36.5103 21.249 36.5103Z" fill="#FED294"/>
</g>
<defs>
<radialGradient id="paint0_radial_33_10455" cx="0" cy="0" r="1" gradientUnits="userSpaceOnUse" gradientTransform="translate(31.5967 39.852) scale(4.49543 3.93987)">
<stop offset="0.00017998" stop-color="#DF7469"/>
<stop offset="1" stop-color="white"/>
</radialGradient>
<radialGradient id="paint1_radial_33_10455" cx="0" cy="0" r="1" gradientUnits="userSpaceOnUse" gradientTransform="translate(45.3093 39.852) scale(4.49543 3.93987)">
<stop offset="0.00017998" stop-color="#DF7469"/>
<stop offset="1" stop-color="white"/>
</radialGradient>
<clipPath id="clip0_33_10455">
<rect x="2" y="2" width="72" height="72" rx="36" fill="white"/>
</clipPath>
</defs>
</svg>
