<svg width="112" height="111" viewBox="0 0 112 111" fill="none" xmlns="http://www.w3.org/2000/svg">
<path d="M56 111C86.6518 111 111.5 86.1518 111.5 55.5C111.5 24.8482 86.6518 0 56 0C25.3482 0 0.5 24.8482 0.5 55.5C0.5 86.1518 25.3482 111 56 111Z" fill="#F1F6FF"/>
<path d="M56.0003 110.997C72.6215 110.997 87.5355 103.69 97.707 92.1133C88.8649 78.447 73.4891 69.4024 56.0003 69.4024C38.5114 69.4024 23.1357 78.447 14.2935 92.1133C24.465 103.69 39.379 110.997 56.0003 110.997Z" fill="#D7CAD9"/>
<path d="M56.0003 63.454C67.6772 63.454 77.1432 53.988 77.1432 42.3111C77.1432 30.6342 67.6772 21.1682 56.0003 21.1682C44.3234 21.1682 34.8574 30.6342 34.8574 42.3111C34.8574 53.988 44.3234 63.454 56.0003 63.454Z" fill="#D7CAD9"/>
</svg>
