<svg width="72" height="72" viewBox="0 0 72 72" fill="none" xmlns="http://www.w3.org/2000/svg">
<path d="M1.5 15.522C1.5 9.89129 4.26687 5.19309 9.27748 3.99383C14.6771 2.70146 23.154 1.5 36 1.5C48.846 1.5 57.3229 2.70146 62.7225 3.99383C67.7331 5.19309 70.5 9.89128 70.5 15.522V56.478C70.5 62.1087 67.7331 66.8069 62.7225 68.0062C57.3229 69.2985 48.846 70.5 36 70.5C23.154 70.5 14.6771 69.2985 9.27748 68.0062C4.26686 66.8069 1.5 62.1087 1.5 56.478V15.522Z" fill="#E02DFF" stroke="white" stroke-width="3"/>
<path d="M39.7553 41.1036C39.8425 41.1087 39.9285 41.117 40.0168 41.117C50.6513 41.117 56.9994 36.009 56.9994 27.4523C56.9994 21.8415 52.985 17.2587 47.9591 16.9828C47.5071 16.8988 47.0063 16.8613 46.4591 16.8613H25.4236C24.7782 16.8613 24.2146 16.9052 23.7243 17.0005C18.8471 17.4462 15 21.9591 15 27.4523C15 36.009 21.3487 41.117 31.9826 41.117C32.3469 41.117 32.6978 41.0782 33.036 41.0057V51.8084C33.036 51.926 33.0423 52.036 33.0482 52.1472C31.7212 52.6113 30.4147 54.0105 29.9586 55.526C29.4619 57.1764 29.7768 58.0206 30.8138 57.9996C31.2077 57.9901 34.0602 57.9494 36.2545 57.9036C36.3765 57.903 36.4967 57.8998 36.6164 57.8966C38.8119 57.8515 41.87 57.8089 42.2639 57.8012C43.3015 57.7809 43.5868 56.9227 43.0331 55.2946C42.5486 53.8706 41.1101 52.514 39.7461 52.0512C39.749 51.9705 39.7548 51.8923 39.7548 51.8084L39.7553 41.1036ZM47.316 32.2138C48.1735 29.7377 49.3406 25.9171 50.007 23.2998C50.0988 22.9394 50.1737 22.6012 50.237 22.2789C51.8312 23.3272 52.906 25.2515 52.906 27.453C52.906 32.5463 49.5033 34.8456 45.9804 35.8634C46.4172 34.7872 46.8489 33.5647 47.316 32.2138ZM19.0952 27.4517C19.0952 25.2788 20.1427 23.3767 21.7026 22.3189C21.77 22.6298 21.8472 22.9546 21.9378 23.2992C22.85 26.7689 23.5227 29.3893 24.4453 32.2132C24.8798 33.5418 25.2958 34.7287 25.7222 35.7744C22.3079 34.7134 19.0952 32.4013 19.0952 27.4517Z" fill="#CCCCCC"/>
<path d="M39.7553 38.2429C39.8425 38.248 39.9285 38.2562 40.0168 38.2562C50.6513 38.2562 56.9994 33.1483 56.9994 24.5916C56.9994 18.9808 52.985 14.3979 47.9591 14.122C47.5071 14.0381 47.0063 14.0006 46.4591 14.0006H25.4236C24.7782 14.0006 24.2146 14.0445 23.7243 14.1398C18.8471 14.5855 15 19.0984 15 24.5916C15 33.1483 21.3487 38.2562 31.9826 38.2562C32.3469 38.2562 32.6978 38.2175 33.036 38.145V48.9477C33.036 49.0653 33.0423 49.1753 33.0482 49.2865C31.7212 49.7506 30.4147 51.1498 29.9586 52.6653C29.4619 54.3156 29.7768 55.1599 30.8138 55.1389C31.2077 55.1293 34.0602 55.0887 36.2545 55.0429C36.3765 55.0423 36.4967 55.0391 36.6164 55.0359C38.8119 54.9908 41.87 54.9482 42.2639 54.9405C43.3015 54.9202 43.5868 54.062 43.0331 52.4339C42.5486 51.0099 41.1101 49.6533 39.7461 49.1905C39.749 49.1098 39.7548 49.0316 39.7548 48.9477L39.7553 38.2429ZM47.316 29.3531C48.1735 26.877 49.3406 23.0563 50.007 20.4391C50.0988 20.0787 50.1737 19.7405 50.237 19.4182C51.8312 20.4665 52.906 22.3908 52.906 24.5922C52.906 29.6856 49.5033 31.9849 45.9804 33.0027C46.4172 31.9264 46.8489 30.704 47.316 29.3531ZM19.0952 24.591C19.0952 22.4181 20.1427 20.516 21.7026 19.4582C21.77 19.7691 21.8472 20.0939 21.9378 20.4385C22.85 23.9082 23.5227 26.5286 24.4453 29.3525C24.8798 30.6811 25.2958 31.868 25.7222 32.9137C22.3079 31.8527 19.0952 29.5406 19.0952 24.591Z" fill="white"/>
<path d="M23.7255 16.0464C24.2158 15.9517 24.7788 15.9071 25.4248 15.9071H46.4602C47.0075 15.9071 47.5083 15.9453 47.9603 16.0286C52.7299 16.2898 56.5817 20.4334 56.9622 25.6507C56.9849 25.303 57 24.9508 57 24.591C57 18.9802 52.9856 14.3973 47.9597 14.1214C47.5077 14.0375 47.0069 14 46.4596 14H25.4242C24.7787 14 24.2152 14.0439 23.7249 14.1392C18.8477 14.5849 15.0006 19.0978 15.0006 24.591C15.0006 24.9489 15.0157 25.2979 15.0378 25.6437C15.4137 20.544 19.1039 16.4685 23.7255 16.0464Z" fill="white"/>
<path d="M52.7874 26.6132C52.8351 26.3284 52.885 25.9254 52.8496 25.6469C52.2791 30.163 48.9874 32.203 45.9855 32.9977C45.709 33.7732 45.4394 34.5024 45.1687 35.1693C48.5028 34.3479 51.8922 31.9907 52.7874 26.6132Z" fill="white"/>
<path d="M26.5472 35.0898C26.2736 34.4198 26.004 33.6855 25.7327 32.8991C22.6745 32.1229 19.6245 29.6595 19.1527 25.6469C19.1405 26.1103 19.2201 26.5395 19.262 26.8255C19.915 31.355 23.1329 34.0288 26.5472 35.0898Z" fill="white"/>
<path d="M39.7553 49.1943V50.8548C39.7553 50.9387 39.7495 51.0169 39.7466 51.0977C41.1107 51.5605 42.5491 52.9164 43.0337 54.3411C43.0621 54.4244 43.0784 54.4962 43.1022 54.575C43.3968 54.177 43.3817 53.4587 43.0337 52.4339C42.5509 51.0125 41.1165 49.659 39.7553 49.1943Z" fill="white"/>
<path d="M33.0493 51.1937C33.0435 51.0824 33.0371 50.9718 33.0371 50.8548V49.2916C31.7142 49.7601 30.414 51.1543 29.9591 52.666C29.6646 53.6437 29.6617 54.3309 29.919 54.7301C29.9336 54.6761 29.9423 54.6291 29.9591 54.5731C30.4158 53.0569 31.7223 51.6578 33.0493 51.1937Z" fill="white"/>
<path d="M23.8794 17.2097C23.8794 18.7056 24.9867 19.9179 26.3543 19.9179C27.7219 19.9179 28.8292 18.7062 28.8292 17.2097C28.8292 15.7133 27.7219 14.501 26.3543 14.501C24.9867 14.501 23.8794 15.7139 23.8794 17.2097Z" fill="white"/>
</svg>
