<svg width="72" height="72" viewBox="0 0 72 72" fill="none" xmlns="http://www.w3.org/2000/svg">
<path d="M1.5 15.522C1.5 9.89129 4.26687 5.19309 9.27748 3.99383C14.6771 2.70146 23.154 1.5 36 1.5C48.846 1.5 57.3229 2.70146 62.7225 3.99383C67.7331 5.19309 70.5 9.89128 70.5 15.522V56.478C70.5 62.1087 67.7331 66.8069 62.7225 68.0062C57.3229 69.2985 48.846 70.5 36 70.5C23.154 70.5 14.6771 69.2985 9.27748 68.0062C4.26686 66.8069 1.5 62.1087 1.5 56.478V15.522Z" fill="#E02DFF" stroke="white" stroke-width="3"/>
<path d="M53.3803 32.281H50.9807C50.7643 31.6811 50.5097 31.0967 50.2237 30.5339L51.9147 28.8712C53.3286 27.4828 53.3291 25.2336 51.9152 23.8457L49.7359 21.7063C48.3231 20.3184 46.0314 20.3184 44.6186 21.7063L42.8804 23.412C42.3145 23.1449 41.7278 22.912 41.1276 22.7101V20.3124C41.1276 18.3501 39.508 16.7592 37.5085 16.7592H34.4278C32.4283 16.7592 30.8076 18.3506 30.8076 20.3124V22.7073C30.2001 22.9115 29.6072 23.1471 29.0351 23.4181L27.3363 21.7504C25.9229 20.3648 23.6312 20.3637 22.2184 21.751L20.0397 23.8904C18.6258 25.2788 18.6258 27.5281 20.0397 28.917L21.6969 30.5444C21.4025 31.1255 21.1445 31.7253 20.9237 32.3439H18.619C16.6218 32.3439 15.0005 33.9353 15.0005 35.8971V38.9222C15.0005 40.8862 16.6207 42.4765 18.6196 42.4771H20.8545C21.076 43.1249 21.335 43.7535 21.6368 44.3605L20.0841 45.8863C18.6718 47.2741 18.6707 49.5245 20.0841 50.9123L22.2628 53.0523C23.6762 54.4396 25.9673 54.4396 27.3813 53.0523L28.9177 51.5442C29.546 51.8488 30.1995 52.1126 30.8717 52.3355V54.4462C30.8722 56.4085 32.4924 58 34.4908 57.9995L37.5715 58C39.571 58 41.1906 56.4091 41.1911 54.4462V52.2903C41.8543 52.0635 42.4966 51.7958 43.1164 51.4895L44.663 53.0082C46.0763 54.3949 48.3681 54.396 49.7809 53.0082L51.9602 50.8682C53.3735 49.4809 53.3735 47.2311 51.9596 45.8432L50.3423 44.254C50.6306 43.6608 50.8795 43.046 51.0908 42.4153H53.3786C55.377 42.4153 56.9982 40.8244 56.9982 38.8615V35.8353C56.9999 33.8724 55.3798 32.281 53.3803 32.281ZM35.9626 45.7334C31.3381 45.7334 27.5886 42.0516 27.5886 37.5112C27.5886 32.9691 31.3381 29.2884 35.9626 29.2884C40.587 29.2884 44.337 32.9691 44.337 37.5112C44.337 42.0516 40.5876 45.7334 35.9626 45.7334Z" fill="#CCCCCC"/>
<path d="M53.3803 29.5218H50.9807C50.7643 28.922 50.5097 28.3376 50.2237 27.7747L51.9147 26.1121C53.3286 24.7237 53.3291 22.4744 51.9152 21.0866L49.7359 18.9471C48.3231 17.5593 46.0314 17.5593 44.6186 18.9471L42.8804 20.6529C42.3145 20.3858 41.7278 20.1529 41.1276 19.9509V17.5532C41.1276 15.5909 39.508 14 37.5085 14H34.4278C32.4283 14 30.8076 15.5915 30.8076 17.5532V19.9482C30.2001 20.1524 29.6072 20.388 29.0351 20.6589L27.3363 18.9913C25.9229 17.6057 23.6312 17.6046 22.2184 18.9919L20.0397 21.1313C18.6258 22.5197 18.6258 24.7689 20.0397 26.1579L21.6969 27.7852C21.4025 28.3663 21.1445 28.9661 20.9237 29.5847H18.619C16.6218 29.5847 15.0005 31.1762 15.0005 33.138V36.1631C15.0005 38.127 16.6207 39.7174 18.6196 39.718H20.8545C21.076 40.3658 21.335 40.9943 21.6368 41.6013L20.0841 43.1272C18.6718 44.515 18.6707 46.7654 20.0841 48.1532L22.2628 50.2932C23.6762 51.6805 25.9673 51.6805 27.3813 50.2932L28.9177 48.785C29.546 49.0896 30.1995 49.3534 30.8717 49.5764V51.6871C30.8722 53.6494 32.4924 55.2409 34.4908 55.2403L37.5715 55.2409C39.571 55.2409 41.1906 53.65 41.1911 51.6871V49.5311C41.8543 49.3043 42.4966 49.0367 43.1164 48.7304L44.663 50.249C46.0763 51.6358 48.3681 51.6369 49.7809 50.249L51.9602 48.109C53.3735 46.7217 53.3735 44.472 51.9596 43.0841L50.3423 41.4948C50.6306 40.9016 50.8795 40.2869 51.0908 39.6562H53.3786C55.377 39.6562 56.9982 38.0652 56.9982 36.1024V33.0762C56.9999 31.1133 55.3798 29.5218 53.3803 29.5218ZM35.9626 42.9743C31.3381 42.9743 27.5886 39.2925 27.5886 34.7521C27.5886 30.21 31.3381 26.5293 35.9626 26.5293C40.587 26.5293 44.337 30.21 44.337 34.7521C44.337 39.2925 40.5876 42.9743 35.9626 42.9743Z" fill="white"/>
<path d="M34.4284 15.9314H37.5092C39.5087 15.9314 41.1283 17.5229 41.1283 19.4846V17.5532C41.1283 15.5909 39.5087 14 37.5092 14H34.4284C32.429 14 30.8082 15.5915 30.8082 17.5532V19.4846C30.8077 17.5229 32.4284 15.9314 34.4284 15.9314Z" fill="white"/>
<path d="M41.1277 21.3288C41.8616 21.5137 42.6697 21.8928 43.3368 22.2377L44.6187 20.8791C46.032 19.4912 48.3237 19.4912 49.736 20.8791L51.9153 23.0185C52.3688 23.4644 52.6751 23.9986 52.8375 24.5647C53.1808 23.3673 52.8746 22.0291 51.9153 21.0871L49.736 18.9477C48.3232 17.5598 46.0314 17.5598 44.6187 18.9477L42.8805 20.6534C42.3146 20.3863 41.7279 20.1534 41.1277 19.9515V21.3288Z" fill="white"/>
<path d="M22.3685 42.8165C22.1808 42.4942 21.8065 41.9656 21.6205 41.5969L20.084 43.1277C19.1253 44.0697 18.819 45.4089 19.1618 46.6064C19.3243 46.0402 19.6305 45.505 20.084 45.0591L22.3685 42.8165Z" fill="white"/>
<path d="M53.3804 29.5218H50.9808C50.7481 28.8596 50.2912 27.8901 50.239 27.756L49.677 28.2388C50.1861 29.0666 50.8886 30.86 50.9808 31.4532H53.3804C55.3799 31.4532 57 33.0447 57 35.007V33.0756C57 31.1133 55.3799 29.5218 53.3804 29.5218Z" fill="white"/>
<path d="M50.3732 41.4369C50.0922 41.8965 49.8112 42.3336 49.6005 42.6095L51.9607 45.0149C52.4148 45.4608 52.7205 45.9955 52.8835 46.5623C53.2269 45.3654 52.9206 44.0261 51.9607 43.0835L50.3732 41.4369Z" fill="white"/>
<path d="M20.0397 23.0627L22.2184 20.9233C23.6312 19.536 25.9229 19.5371 27.3363 20.9227L28.7609 22.2377C29.3583 21.8928 30.2715 21.5132 30.8335 21.3062L30.8082 19.9482C30.2007 20.1524 29.6078 20.388 29.0357 20.6589L27.3369 18.9913C25.9235 17.6057 23.6318 17.6046 22.219 18.9919L20.0402 21.1313C19.0804 22.0738 18.7741 23.4125 19.1175 24.6106C19.2793 24.0433 19.5856 23.5086 20.0397 23.0627Z" fill="white"/>
<path d="M18.6191 31.5167H20.9237C21.2328 30.5273 21.6425 29.3088 22.2045 28.1478L21.6773 27.7681C21.3845 28.32 21.0682 29.1587 20.9232 29.5853H18.6185C16.6213 29.5853 15 31.1768 15 33.1385V35.0699C15.0006 33.1076 16.6218 31.5167 18.6191 31.5167Z" fill="white"/>
<path d="M35.9626 42.1465C31.6349 42.1465 28.0726 38.9746 27.5814 34.89C27.5432 35.2073 27.587 36.0207 27.6376 36.3441C28.2692 40.4138 31.3 43.5868 35.9632 43.5868C40.627 43.5868 43.7942 39.8973 44.2146 36.2061C44.25 35.8949 44.3837 35.2073 44.3455 34.89C43.8532 38.9746 40.2909 42.1465 35.9626 42.1465Z" fill="white"/>
<path d="M20.3258 23.2034C20.3258 24.5018 21.3969 25.5542 22.7198 25.5542C24.0427 25.5542 25.1138 24.5024 25.1138 23.2034C25.1138 21.9044 24.0421 20.8521 22.7198 20.8521C21.3969 20.8521 20.3258 21.9049 20.3258 23.2034Z" fill="white"/>
</svg>
