<svg width="295" height="295" viewBox="0 0 295 295" fill="none" xmlns="http://www.w3.org/2000/svg">
<path d="M251.797 251.797C224.136 279.459 186.619 294.999 147.499 294.999L147.499 147.499L251.797 251.797Z" fill="#E02DFF"/>
<path d="M147.499 294.999C108.38 294.999 70.8632 279.459 43.2016 251.797L147.499 147.499L147.499 294.999Z" fill="white"/>
<path d="M294.999 147.499C294.999 186.619 279.459 224.136 251.797 251.797L147.499 147.499L294.999 147.499Z" fill="white"/>
<path d="M43.2016 251.797C15.5401 224.136 5.52115e-06 186.619 -3.04851e-07 147.499L147.499 147.499L43.2016 251.797Z" fill="#E02DFF"/>
<path d="M251.8 43.2028C279.461 70.8643 295.001 108.381 295.001 147.501L147.502 147.501L251.8 43.2028Z" fill="#E02DFF"/>
<path d="M147.502 0.00117249C186.621 0.00117595 224.138 15.5412 251.799 43.2027L147.502 147.501L147.502 0.00117249Z" fill="white"/>
<path d="M43.2039 43.2027C70.8654 15.5412 108.382 0.00116903 147.502 0.00117249L147.502 147.501L43.2039 43.2027Z" fill="#E02DFF"/>
<path d="M0.00229721 147.501C0.00230067 108.381 15.5424 70.8643 43.2039 43.2028L147.502 147.501L0.00229721 147.501Z" fill="white"/>
<path d="M58.8343 180.388C58.5817 180.844 58.4674 181.053 58.4914 181.017C57.7779 182.366 57.2303 183.457 56.8489 184.291C56.4563 185.13 56.175 185.954 56.0049 186.766C55.8349 187.577 55.874 188.282 56.1224 188.88C56.311 189.335 56.5635 189.646 56.8799 189.813C57.1963 189.981 57.5651 189.977 57.9862 189.802C58.4074 189.627 58.6732 189.329 58.7836 188.906C58.8876 188.499 58.82 188.007 58.5808 187.431L61.3239 186.293C61.6927 187.244 61.8198 188.114 61.7052 188.902C61.5795 189.695 61.2684 190.369 60.7719 190.926C60.2643 191.488 59.6282 191.927 58.8634 192.244C57.5445 192.792 56.4122 192.865 55.4666 192.465C54.51 192.07 53.8062 191.329 53.3554 190.243C52.8633 189.057 52.8101 187.786 53.196 186.431C53.5865 185.086 54.2079 183.672 55.0601 182.188L50.5713 184.051L49.6123 181.74L57.9581 178.277L58.8343 180.388ZM43.7551 195.299L48.9421 193.146L47.9899 190.852C47.8695 191.188 47.6419 191.516 47.3073 191.837C46.9727 192.158 46.5727 192.415 46.1072 192.608C45.2759 192.953 44.5105 193.05 43.8111 192.898C43.1005 192.751 42.4936 192.432 41.9903 191.939C41.4869 191.446 41.0904 190.851 40.8006 190.153C40.2624 188.856 40.2004 187.673 40.6145 186.605C41.0332 185.548 41.9076 184.743 43.2376 184.191C44.1242 183.823 44.9566 183.653 45.7347 183.681C46.5175 183.72 47.1988 183.937 47.7789 184.333C48.359 184.729 48.8128 185.275 49.1405 185.97L46.3641 187.122C46.155 186.806 45.8747 186.585 45.5232 186.458C45.1762 186.342 44.7811 186.376 44.3378 186.56C43.8169 186.776 43.4979 187.104 43.381 187.542C43.2641 187.98 43.3206 188.476 43.5506 189.031C43.776 189.574 44.0815 189.934 44.4671 190.112C44.8527 190.29 45.3004 190.273 45.8103 190.061C46.1871 189.905 46.4583 189.682 46.624 189.392C46.7942 189.114 46.856 188.809 46.8094 188.477L49.5525 187.339L52.554 194.571L44.7901 197.793L43.7551 195.299ZM40.0662 192.815C40.8574 194.722 41.1149 196.375 40.8388 197.776C40.5516 199.182 39.5878 200.225 37.9475 200.906C36.3072 201.586 34.8936 201.53 33.7067 200.736C32.5087 199.947 31.5141 198.599 30.7229 196.693C29.9226 194.765 29.666 193.098 29.9532 191.692C30.2293 190.291 31.1875 189.251 32.8279 188.57C34.4682 187.889 35.8874 187.943 37.0853 188.732C38.2722 189.526 39.2658 190.887 40.0662 192.815ZM33.5159 195.534C33.9805 196.653 34.4589 197.462 34.9512 197.959C35.448 198.467 36.0788 198.563 36.8435 198.246C37.6083 197.928 37.9861 197.414 37.9769 196.703C37.9724 196.004 37.7378 195.094 37.2732 193.975C36.9604 193.221 36.6562 192.613 36.3605 192.151C36.0695 191.7 35.7265 191.375 35.3317 191.175C34.9305 190.991 34.4638 191.009 33.9318 191.23C33.3998 191.451 33.0629 191.766 32.9211 192.175C32.7728 192.601 32.7555 193.076 32.8693 193.6C32.9876 194.136 33.2032 194.78 33.5159 195.534Z" fill="white"/>
<path d="M108.791 231.821L111.085 232.775L116.413 241.15L115.093 244.325L107.747 241.27L107.181 242.633L104.721 241.61L105.287 240.248L103.127 239.349L104.309 236.507L106.469 237.405L108.791 231.821ZM113.068 240.383L110.007 235.835L108.846 238.628L113.068 240.383ZM108.214 244.696C110.12 245.488 111.469 246.478 112.262 247.665C113.05 248.864 113.103 250.283 112.422 251.923C111.74 253.563 110.698 254.52 109.297 254.796C107.892 255.082 106.236 254.829 104.33 254.036C102.402 253.235 101.044 252.235 100.256 251.036C99.4628 249.849 99.4073 248.435 100.089 246.795C100.771 245.155 101.815 244.192 103.22 243.906C104.621 243.631 106.286 243.894 108.214 244.696ZM105.491 251.244C106.61 251.709 107.52 251.945 108.219 251.95C108.93 251.959 109.444 251.582 109.762 250.817C110.08 250.053 109.985 249.422 109.477 248.925C108.98 248.432 108.172 247.953 107.053 247.488C106.299 247.175 105.655 246.959 105.119 246.84C104.595 246.726 104.122 246.737 103.702 246.874C103.287 247.027 102.97 247.369 102.748 247.901C102.527 248.433 102.511 248.894 102.7 249.284C102.895 249.69 103.218 250.039 103.668 250.33C104.13 250.626 104.738 250.931 105.491 251.244ZM103.706 255.538C105.611 256.33 106.961 257.32 107.754 258.508C108.542 259.706 108.595 261.125 107.913 262.765C107.231 264.405 106.19 265.363 104.789 265.638C103.383 265.924 101.728 265.671 99.8217 264.879C97.8937 264.077 96.5356 263.077 95.7473 261.878C94.9545 260.691 94.899 259.277 95.5809 257.637C96.2627 255.998 97.3065 255.034 98.7121 254.748C100.113 254.473 101.778 254.736 103.706 255.538ZM100.983 262.086C102.102 262.552 103.011 262.787 103.711 262.792C104.422 262.802 104.936 262.424 105.254 261.66C105.572 260.895 105.477 260.264 104.969 259.767C104.472 259.274 103.664 258.795 102.545 258.33C101.791 258.017 101.147 257.801 100.611 257.682C100.087 257.568 99.6142 257.58 99.1934 257.716C98.779 257.869 98.4613 258.211 98.2401 258.743C98.019 259.275 98.0027 259.736 98.1913 260.126C98.3864 260.532 98.7092 260.881 99.1599 261.172C99.6217 261.468 100.229 261.773 100.983 262.086Z" fill="#E02DFF"/>
<path d="M250.335 185.673L251.423 183.026L256.035 184.921L251.04 197.075L248.077 195.857L251.983 186.35L250.335 185.673ZM255.553 191.631C256.338 189.722 257.322 188.369 258.506 187.571C259.701 186.778 261.12 186.719 262.763 187.394C264.406 188.069 265.368 189.106 265.649 190.506C265.941 191.91 265.695 193.567 264.91 195.476C264.117 197.408 263.122 198.77 261.927 199.563C260.743 200.361 259.33 200.422 257.687 199.747C256.044 199.072 255.077 198.033 254.785 196.628C254.504 195.228 254.76 193.563 255.553 191.631ZM262.113 194.327C262.574 193.206 262.805 192.295 262.807 191.596C262.814 190.885 262.434 190.372 261.669 190.057C260.903 189.743 260.272 189.84 259.777 190.351C259.287 190.85 258.811 191.66 258.35 192.781C258.04 193.536 257.827 194.181 257.711 194.717C257.599 195.242 257.612 195.714 257.751 196.134C257.905 196.548 258.249 196.865 258.781 197.083C259.314 197.302 259.775 197.317 260.165 197.126C260.57 196.93 260.917 196.605 261.207 196.154C261.501 195.691 261.803 195.082 262.113 194.327Z" fill="#E02DFF"/>
<path d="M190.346 240.885L188.333 235.643L186.014 236.533C186.346 236.662 186.669 236.898 186.98 237.242C187.292 237.585 187.538 237.991 187.719 238.462C188.041 239.302 188.117 240.07 187.947 240.765C187.781 241.471 187.445 242.07 186.939 242.559C186.433 243.049 185.827 243.43 185.121 243.701C183.811 244.204 182.627 244.234 181.57 243.791C180.525 243.344 179.744 242.449 179.228 241.104C178.884 240.208 178.736 239.371 178.785 238.594C178.845 237.813 179.08 237.138 179.492 236.568C179.903 235.999 180.461 235.56 181.165 235.251L182.242 238.058C181.921 238.258 181.692 238.533 181.555 238.881C181.43 239.224 181.454 239.62 181.626 240.068C181.828 240.595 182.146 240.922 182.581 241.051C183.016 241.18 183.514 241.136 184.074 240.921C184.623 240.711 184.991 240.415 185.179 240.034C185.368 239.654 185.363 239.206 185.165 238.69C185.019 238.309 184.803 238.032 184.518 237.859C184.244 237.681 183.941 237.611 183.608 237.649L182.544 234.876L189.854 232.07L192.866 239.918L190.346 240.885ZM187.764 244.506C189.691 243.767 191.351 243.554 192.743 243.867C194.141 244.192 195.158 245.184 195.794 246.842C196.43 248.5 196.336 249.911 195.511 251.076C194.69 252.253 193.316 253.211 191.389 253.95C189.44 254.699 187.766 254.91 186.369 254.586C184.976 254.272 183.962 253.286 183.325 251.628C182.689 249.97 182.781 248.553 183.602 247.376C184.427 246.211 185.814 245.255 187.764 244.506ZM190.305 251.127C191.437 250.693 192.258 250.236 192.768 249.758C193.29 249.275 193.402 248.647 193.105 247.874C192.809 247.101 192.305 246.709 191.594 246.699C190.894 246.685 189.979 246.895 188.847 247.329C188.086 247.622 187.47 247.91 187 248.193C186.542 248.472 186.207 248.806 185.997 249.195C185.802 249.591 185.807 250.058 186.014 250.596C186.22 251.134 186.526 251.479 186.932 251.632C187.353 251.791 187.827 251.821 188.355 251.722C188.893 251.618 189.543 251.42 190.305 251.127ZM191.972 255.469C193.899 254.729 195.559 254.516 196.951 254.83C198.349 255.154 199.366 256.146 200.002 257.804C200.638 259.462 200.544 260.874 199.719 262.039C198.898 263.215 197.524 264.173 195.597 264.913C193.648 265.661 191.974 265.873 190.577 265.548C189.184 265.234 188.17 264.248 187.533 262.59C186.897 260.932 186.989 259.515 187.81 258.339C188.635 257.174 190.022 256.217 191.972 255.469ZM194.513 262.09C195.645 261.655 196.466 261.199 196.976 260.72C197.498 260.237 197.61 259.609 197.313 258.836C197.017 258.063 196.513 257.672 195.802 257.662C195.102 257.647 194.187 257.857 193.055 258.292C192.294 258.584 191.678 258.872 191.208 259.155C190.75 259.434 190.415 259.768 190.205 260.157C190.01 260.553 190.015 261.02 190.222 261.558C190.428 262.096 190.734 262.441 191.14 262.594C191.561 262.754 192.035 262.784 192.563 262.684C193.101 262.58 193.751 262.382 194.513 262.09Z" fill="white"/>
<path d="M247.15 110.439C247.405 109.984 247.52 109.775 247.496 109.811C248.217 108.466 248.77 107.378 249.156 106.546C249.553 105.71 249.839 104.887 250.014 104.076C250.188 103.266 250.153 102.561 249.908 101.961C249.722 101.506 249.471 101.194 249.155 101.024C248.84 100.855 248.471 100.857 248.049 101.029C247.627 101.202 247.36 101.499 247.247 101.921C247.141 102.327 247.206 102.819 247.442 103.397L244.692 104.52C244.329 103.567 244.206 102.697 244.325 101.909C244.455 101.117 244.77 100.444 245.27 99.8899C245.78 99.3312 246.419 98.8953 247.185 98.5821C248.507 98.0419 249.64 97.9745 250.583 98.3797C251.538 98.7804 252.237 99.5251 252.682 100.614C253.168 101.802 253.214 103.073 252.821 104.427C252.423 105.769 251.794 107.18 250.934 108.659L255.432 106.821L256.379 109.137L248.014 112.555L247.15 110.439ZM255.148 102.542C254.367 100.632 254.119 98.9766 254.403 97.5773C254.697 96.1734 255.667 95.1356 257.311 94.4637C258.955 93.7919 260.368 93.8561 261.551 94.6562C262.744 95.4518 263.732 96.8049 264.512 98.7155C265.302 100.648 265.55 102.317 265.255 103.721C264.971 105.12 264.007 106.155 262.363 106.827C260.719 107.499 259.3 107.437 258.107 106.642C256.924 105.842 255.938 104.475 255.148 102.542ZM261.713 99.8595C261.255 98.7375 260.781 97.9266 260.291 97.4266C259.797 96.9155 259.167 96.8165 258.4 97.1297C257.634 97.443 257.253 97.955 257.259 98.6658C257.259 99.3655 257.489 100.276 257.947 101.398C258.256 102.154 258.557 102.763 258.85 103.227C259.139 103.679 259.48 104.006 259.874 104.208C260.274 104.395 260.741 104.379 261.274 104.161C261.807 103.943 262.146 103.63 262.29 103.221C262.44 102.797 262.46 102.322 262.349 101.797C262.234 101.261 262.022 100.615 261.713 99.8595Z" fill="white"/>
<path d="M180.351 55.1428L177.689 54.0916L179.521 49.4541L191.742 54.2803L190.566 57.2603L181.006 53.4853L180.351 55.1428ZM186.238 49.8427C184.318 49.0846 182.951 48.119 182.137 46.9461C181.327 45.7619 181.248 44.3439 181.901 42.692C182.553 41.0402 183.577 40.0641 184.973 39.7638C186.373 39.4523 188.033 39.6756 189.953 40.4337C191.895 41.2006 193.271 42.1761 194.081 43.3603C194.895 44.5333 194.976 45.9457 194.323 47.5975C193.671 49.2494 192.645 50.2311 191.244 50.5426C189.849 50.8429 188.18 50.6096 186.238 49.8427ZM188.842 43.2463C187.715 42.8012 186.802 42.5824 186.102 42.5899C185.391 42.5931 184.884 42.9797 184.579 43.7498C184.275 44.52 184.382 45.149 184.899 45.637C185.404 46.1205 186.221 46.5849 187.348 47.03C188.107 47.3297 188.755 47.5341 189.293 47.6432C189.819 47.7478 190.292 47.7279 190.71 47.5834C191.121 47.4234 191.433 47.0755 191.645 46.5398C191.856 46.004 191.864 45.5427 191.669 45.1558C191.466 44.7534 191.137 44.4106 190.681 44.1273C190.214 43.8397 189.601 43.5461 188.842 43.2463ZM190.55 38.9212C188.631 38.1631 187.264 37.1976 186.45 36.0246C185.64 34.8404 185.561 33.4224 186.214 31.7705C186.866 30.1187 187.89 29.1426 189.286 28.8423C190.686 28.5308 192.346 28.7541 194.266 29.5122C196.208 30.2791 197.584 31.2546 198.393 32.4388C199.207 33.6118 199.288 35.0242 198.636 36.6761C197.984 38.3279 196.957 39.3096 195.557 39.6211C194.161 39.9214 192.492 39.6881 190.55 38.9212ZM193.155 32.3249C192.028 31.8797 191.114 31.6609 190.415 31.6684C189.704 31.6716 189.196 32.0582 188.892 32.8283C188.588 33.5985 188.695 34.2275 189.211 34.7155C189.717 35.199 190.534 35.6634 191.661 36.1085C192.42 36.4082 193.068 36.6126 193.606 36.7217C194.132 36.8263 194.604 36.8064 195.023 36.6619C195.434 36.5019 195.746 36.154 195.957 35.6183C196.169 35.0825 196.177 34.6212 195.981 34.2343C195.779 33.8319 195.45 33.4891 194.994 33.2059C194.527 32.9182 193.914 32.6246 193.155 32.3249Z" fill="#E02DFF"/>
<path d="M55.5559 113.686L54.4562 116.328L49.8529 114.412L54.9018 102.281L57.8599 103.512L53.9107 113.001L55.5559 113.686ZM48.2525 107.156C49.0634 108.144 49.2221 109.23 48.7288 110.416C48.4798 111.014 48.0987 111.492 47.5857 111.851C47.068 112.22 46.4334 112.417 45.6821 112.443C44.9261 112.479 44.0883 112.306 43.1688 111.923C42.2492 111.54 41.5415 111.07 41.0456 110.513C40.534 109.962 40.2268 109.373 40.1241 108.745C40.0167 108.129 40.0876 107.521 40.3366 106.923C40.5855 106.325 40.9463 105.864 41.4188 105.541C41.8802 105.213 42.4021 105.021 42.9845 104.964C42.5062 104.427 42.2124 103.837 42.1032 103.193C41.9894 102.561 42.0731 101.907 42.3544 101.231C42.6818 100.445 43.1647 99.8464 43.8033 99.4363C44.4373 99.0372 45.16 98.8311 45.9714 98.8178C46.7717 98.8 47.5873 98.9639 48.4182 99.3098C49.2491 99.6556 49.9458 100.121 50.5082 100.706C51.0595 101.286 51.417 101.942 51.5807 102.673C51.7397 103.415 51.6556 104.18 51.3282 104.966C51.0424 105.653 50.635 106.179 50.1063 106.544C49.5729 106.92 48.955 107.124 48.2525 107.156ZM43.275 107.639C43.086 108.093 43.0737 108.497 43.2381 108.852C43.3869 109.213 43.6773 109.483 44.1094 109.663C44.5415 109.843 44.9435 109.861 45.3154 109.716C45.6763 109.568 45.9512 109.266 46.1403 108.812C46.3201 108.38 46.3301 107.981 46.1702 107.616C46.0058 107.261 45.7131 106.996 45.2921 106.821C44.8711 106.646 44.4746 106.63 44.1027 106.775C43.7307 106.919 43.4548 107.207 43.275 107.639ZM46.122 104.827C46.6427 105.044 47.1237 105.075 47.5648 104.921C48.0014 104.777 48.3234 104.456 48.5309 103.958C48.7245 103.493 48.7285 103.046 48.5428 102.618C48.346 102.185 47.9817 101.858 47.4499 101.636C46.9182 101.415 46.4405 101.392 46.0168 101.566C45.5821 101.736 45.268 102.054 45.0743 102.519C44.8714 103.007 44.8707 103.461 45.0721 103.883C45.2624 104.3 45.6124 104.615 46.122 104.827ZM39.5884 103.219C38.7953 105.125 37.805 106.474 36.6173 107.266C35.4185 108.054 33.9993 108.107 32.3597 107.424C30.72 106.742 29.7628 105.7 29.4881 104.299C29.2023 102.893 29.4559 101.238 30.249 99.3322C31.0512 97.4045 32.0518 96.0467 33.2505 95.2588C34.4382 94.4663 35.8519 94.4113 37.4915 95.0937C39.1312 95.7761 40.0939 96.8201 40.3797 98.2259C40.6545 99.627 40.3907 101.291 39.5884 103.219ZM33.0408 100.494C32.5751 101.613 32.3396 102.522 32.3344 103.222C32.3245 103.933 32.7018 104.447 33.4663 104.765C34.2307 105.084 34.8616 104.989 35.3589 104.481C35.8516 103.984 36.3308 103.176 36.7965 102.057C37.1101 101.304 37.3263 100.659 37.4451 100.124C37.5594 99.5996 37.5481 99.127 37.4113 98.7062C37.2588 98.2918 36.9167 97.9739 36.3849 97.7526C35.8531 97.5313 35.3921 97.5148 35.0017 97.7033C34.5956 97.8982 34.2468 98.221 33.9553 98.6716C33.6592 99.1332 33.3544 99.7407 33.0408 100.494Z" fill="#E02DFF"/>
<path d="M106.089 58.7168L103.446 59.8161L101.531 55.2126L113.663 50.1653L114.894 53.1234L105.404 57.0715L106.089 58.7168ZM99.6445 43.6962L101.802 48.8813L104.095 47.9272C103.759 47.807 103.431 47.5797 103.11 47.2454C102.789 46.9111 102.531 46.5113 102.338 46.0459C101.992 45.215 101.895 44.4497 102.045 43.7501C102.192 43.0394 102.511 42.4322 103.003 41.9284C103.495 41.4247 104.091 41.0276 104.789 40.7372C106.085 40.1979 107.267 40.1348 108.336 40.548C109.394 40.9658 110.199 41.8395 110.752 43.169C111.121 44.0554 111.292 44.8876 111.265 45.6657C111.226 46.4485 111.009 47.1301 110.614 47.7105C110.219 48.2909 109.673 48.7452 108.978 49.0735L107.823 46.2981C108.139 46.0887 108.36 45.8082 108.487 45.4566C108.603 45.1096 108.568 44.7145 108.384 44.2713C108.167 43.7506 107.84 43.4319 107.401 43.3154C106.963 43.1988 106.467 43.2558 105.913 43.4863C105.37 43.7121 105.01 44.018 104.832 44.4037C104.655 44.7895 104.672 45.2372 104.884 45.7468C105.041 46.1235 105.264 46.3946 105.554 46.5599C105.833 46.7299 106.138 46.7915 106.469 46.7446L107.61 49.4867L100.381 52.4944L97.1516 44.7333L99.6445 43.6962ZM102.125 40.0052C100.219 40.798 98.566 41.057 97.1649 40.7821C95.7592 40.4961 94.7152 39.5332 94.033 37.8935C93.3508 36.2537 93.406 34.8401 94.1987 33.6525C94.9867 32.4538 96.3335 31.4581 98.2392 30.6652C100.167 29.8632 101.834 29.6052 103.239 29.8911C104.641 30.166 105.682 31.1234 106.364 32.7631C107.047 34.4029 106.994 35.8221 106.206 37.0207C105.413 38.2083 104.053 39.2031 102.125 40.0052ZM99.4008 33.4572C98.2818 33.9228 97.4738 34.4019 96.9769 34.8946C96.469 35.3918 96.374 36.0227 96.6921 36.7872C97.0101 37.5517 97.5245 37.929 98.2353 37.9192C98.935 37.9141 99.8444 37.6787 100.963 37.2132C101.717 36.8997 102.324 36.595 102.786 36.2989C103.237 36.0074 103.562 35.6642 103.761 35.2693C103.945 34.8678 103.927 34.4012 103.705 33.8694C103.484 33.3376 103.169 33.0009 102.759 32.8595C102.333 32.7116 101.858 32.6947 101.334 32.8089C100.799 32.9277 100.154 33.1438 99.4008 33.4572Z" fill="white"/>
</svg>
