<svg width="58" height="80" viewBox="0 0 58 80" fill="none" xmlns="http://www.w3.org/2000/svg">
<path d="M-1.90735e-05 61.1694C0.251781 59.6079 0.770004 58.097 1.53253 56.701L28.2353 0L57.0175 59.2411C57.2766 59.8815 57.4924 60.5363 57.665 61.2056C48.3108 62.6878 38.719 63.4506 28.9475 63.4506C19.097 63.4504 9.42607 62.6732 -1.90735e-05 61.1694Z" fill="#F5FF2D"/>
<path d="M8.12075 76.6373V58.737C8.12075 57.0254 8.54779 55.3409 9.36285 53.8359L28.4368 13.3367L48.9975 55.6467C49.5067 56.887 49.7687 58.2146 49.7687 59.5552V76.6371C49.7687 78.4945 48.2631 80 46.4058 80H11.4836C9.62646 80.0002 8.12075 78.4947 8.12075 76.6373Z" fill="#F5FF2D"/>
</svg>
